<mxfile host="65bd71144e">
    <diagram id="mbLdh9Ltk4iBZrilmN6j" name="Page-1">
        <mxGraphModel dx="4603" dy="1863" grid="1" gridSize="10" guides="1" tooltips="1" connect="1" arrows="1" fold="1" page="1" pageScale="1" pageWidth="850" pageHeight="1100" math="0" shadow="0">
            <root>
                <mxCell id="0"/>
                <mxCell id="1" parent="0"/>
                <mxCell id="5" value="Model" style="text;align=center;fontSize=16;fontStyle=1;spacing=-1;" parent="1" vertex="1">
                    <mxGeometry x="-400" y="20" width="60" height="20" as="geometry"/>
                </mxCell>
                <mxCell id="6" value="View" style="text;align=center;fontSize=16;fontStyle=1;spacing=-1;" parent="1" vertex="1">
                    <mxGeometry x="-130" y="20" width="60" height="20" as="geometry"/>
                </mxCell>
                <mxCell id="7" value="" style="line;strokeWidth=1;direction=south;html=1;dashed=1;dashPattern=20 20;fillColor=#b1ddf0;strokeColor=#10739e;" parent="1" vertex="1">
                    <mxGeometry x="40" y="40" width="10" height="7490" as="geometry"/>
                </mxCell>
                <mxCell id="8" value="Controller" style="text;align=center;fontSize=16;fontStyle=1;spacing=-1;" parent="1" vertex="1">
                    <mxGeometry x="160" y="20" width="60" height="20" as="geometry"/>
                </mxCell>
                <mxCell id="9" value="" style="line;strokeWidth=1;direction=south;html=1;dashed=1;dashPattern=20 20;fillColor=#b1ddf0;strokeColor=#10739e;" parent="1" vertex="1">
                    <mxGeometry x="320" y="40" width="10" height="7540" as="geometry"/>
                </mxCell>
                <mxCell id="10" value="Main" style="text;align=center;fontSize=16;fontStyle=1;spacing=-1;" parent="1" vertex="1">
                    <mxGeometry x="480" y="20" width="60" height="20" as="geometry"/>
                </mxCell>
                <mxCell id="103" value="Info" style="text;align=center;fontSize=16;fontStyle=1;spacing=-1;" parent="1" vertex="1">
                    <mxGeometry x="-660" y="20" width="60" height="20" as="geometry"/>
                </mxCell>
                <mxCell id="104" value="" style="line;strokeWidth=1;direction=south;html=1;dashed=1;dashPattern=20 20;fillColor=#b1ddf0;strokeColor=#10739e;" parent="1" vertex="1">
                    <mxGeometry x="-500" y="40" width="10" height="7510" as="geometry"/>
                </mxCell>
                <mxCell id="105" value="" style="line;strokeWidth=1;direction=south;html=1;dashed=1;dashPattern=20 20;fillColor=#b1ddf0;strokeColor=#10739e;" parent="1" vertex="1">
                    <mxGeometry x="-760" y="40" width="10" height="7480" as="geometry"/>
                </mxCell>
                <mxCell id="122" style="edgeStyle=none;html=1;fontColor=#FFFFFF;" parent="1" source="123" target="125" edge="1">
                    <mxGeometry relative="1" as="geometry"/>
                </mxCell>
                <mxCell id="123" value="&lt;font&gt;Hacking btn clicked&lt;/font&gt;" style="html=1;shape=mxgraph.infographic.ribbonSimple;notch1=20;notch2=0;align=center;verticalAlign=middle;fontSize=14;fontStyle=0;flipH=1;fillColor=#2A2A2A;fontColor=default;" parent="1" vertex="1">
                    <mxGeometry x="347.5" y="4480" width="190" height="40" as="geometry"/>
                </mxCell>
                <mxCell id="124" style="edgeStyle=none;html=1;entryX=0.5;entryY=0;entryDx=0;entryDy=0;fontColor=#FFFFFF;startArrow=none;" parent="1" source="127" target="141" edge="1">
                    <mxGeometry relative="1" as="geometry">
                        <Array as="points">
                            <mxPoint x="-847.5" y="4600"/>
                        </Array>
                    </mxGeometry>
                </mxCell>
                <mxCell id="125" value="hackTheSystem" style="html=1;align=center;verticalAlign=top;rounded=1;absoluteArcSize=1;arcSize=10;dashed=0;fontColor=#FFFFFF;" parent="1" vertex="1">
                    <mxGeometry x="372.5" y="4580" width="140" height="40" as="geometry"/>
                </mxCell>
                <mxCell id="126" value="addStudent" style="html=1;align=center;verticalAlign=top;rounded=1;absoluteArcSize=1;arcSize=10;dashed=0;fontColor=#FFFFFF;" parent="1" vertex="1">
                    <mxGeometry x="-467.5" y="4740" width="140" height="40" as="geometry"/>
                </mxCell>
                <mxCell id="127" value="" style="fillColor=#ffffff;strokeColor=#000000;fontColor=#FFFFFF;" parent="1" vertex="1">
                    <mxGeometry x="362.5" y="4595" width="10" height="10" as="geometry"/>
                </mxCell>
                <mxCell id="128" value="" style="line;strokeWidth=1;direction=south;html=1;dashed=1;dashPattern=20 20;fillColor=#b1ddf0;strokeColor=#10739e;" parent="1" vertex="1">
                    <mxGeometry x="-1190" y="40" width="10" height="7500" as="geometry"/>
                </mxCell>
                <mxCell id="129" value="Hacker" style="text;align=center;fontSize=16;fontStyle=1;spacing=-1;" parent="1" vertex="1">
                    <mxGeometry x="-990" y="20" width="60" height="20" as="geometry"/>
                </mxCell>
                <mxCell id="130" value="InjectAddStudent" style="html=1;align=center;verticalAlign=top;rounded=1;absoluteArcSize=1;arcSize=10;dashed=0;fontColor=#FFFFFF;" parent="1" vertex="1">
                    <mxGeometry x="-1067.5" y="4380" width="140" height="40" as="geometry"/>
                </mxCell>
                <mxCell id="131" value="ModifyExpell" style="html=1;align=center;verticalAlign=top;rounded=1;absoluteArcSize=1;arcSize=10;dashed=0;fontColor=#FFFFFF;" parent="1" vertex="1">
                    <mxGeometry x="-1067.5" y="4460" width="140" height="40" as="geometry"/>
                </mxCell>
                <mxCell id="132" value="ModifySquadInsetion" style="html=1;align=center;verticalAlign=top;rounded=1;absoluteArcSize=1;arcSize=10;dashed=0;fontColor=#FFFFFF;" parent="1" vertex="1">
                    <mxGeometry x="-997.5" y="4830" width="140" height="40" as="geometry"/>
                </mxCell>
                <mxCell id="133" value="RandomizeBloodStatus" style="html=1;align=center;verticalAlign=top;rounded=1;absoluteArcSize=1;arcSize=10;dashed=0;fontColor=#FFFFFF;" parent="1" vertex="1">
                    <mxGeometry x="-957.5" y="4900" width="140" height="40" as="geometry"/>
                </mxCell>
                <mxCell id="134" style="edgeStyle=none;html=1;entryX=0.5;entryY=0;entryDx=0;entryDy=0;" parent="1" source="141" edge="1">
                    <mxGeometry relative="1" as="geometry">
                        <mxPoint x="-997.5" y="4690" as="targetPoint"/>
                    </mxGeometry>
                </mxCell>
                <mxCell id="135" style="edgeStyle=none;html=1;entryX=0.5;entryY=0;entryDx=0;entryDy=0;exitX=0.25;exitY=1;exitDx=0;exitDy=0;" parent="1" source="141" edge="1">
                    <mxGeometry relative="1" as="geometry">
                        <Array as="points">
                            <mxPoint x="-882.5" y="4750"/>
                            <mxPoint x="-997.5" y="4750"/>
                        </Array>
                        <mxPoint x="-997.5" y="4770" as="targetPoint"/>
                    </mxGeometry>
                </mxCell>
                <mxCell id="136" style="edgeStyle=none;html=1;entryX=0.862;entryY=-0.042;entryDx=0;entryDy=0;entryPerimeter=0;exitX=0.5;exitY=1;exitDx=0;exitDy=0;" parent="1" source="141" target="132" edge="1">
                    <mxGeometry relative="1" as="geometry">
                        <Array as="points">
                            <mxPoint x="-847.5" y="4810"/>
                            <mxPoint x="-877.5" y="4810"/>
                        </Array>
                    </mxGeometry>
                </mxCell>
                <mxCell id="137" style="edgeStyle=none;html=1;entryX=0.5;entryY=0;entryDx=0;entryDy=0;exitX=1;exitY=0.75;exitDx=0;exitDy=0;" parent="1" source="141" target="126" edge="1">
                    <mxGeometry relative="1" as="geometry">
                        <Array as="points">
                            <mxPoint x="-397.5" y="4650"/>
                        </Array>
                    </mxGeometry>
                </mxCell>
                <mxCell id="138" style="edgeStyle=none;html=1;entryX=0.75;entryY=0;entryDx=0;entryDy=0;exitX=0.75;exitY=1;exitDx=0;exitDy=0;" parent="1" source="141" target="133" edge="1">
                    <mxGeometry relative="1" as="geometry">
                        <Array as="points">
                            <mxPoint x="-812.5" y="4880"/>
                            <mxPoint x="-852.5" y="4880"/>
                        </Array>
                    </mxGeometry>
                </mxCell>
                <mxCell id="139" style="edgeStyle=none;html=1;entryX=0.5;entryY=0;entryDx=0;entryDy=0;exitX=1;exitY=0.75;exitDx=0;exitDy=0;" parent="1" source="141" target="142" edge="1">
                    <mxGeometry relative="1" as="geometry">
                        <Array as="points">
                            <mxPoint x="-247.5" y="4650"/>
                            <mxPoint x="-247.5" y="4710"/>
                            <mxPoint x="-117.5" y="4710"/>
                        </Array>
                    </mxGeometry>
                </mxCell>
                <mxCell id="140" style="edgeStyle=none;html=1;exitX=1;exitY=0.75;exitDx=0;exitDy=0;entryX=0.5;entryY=0;entryDx=0;entryDy=0;" parent="1" source="141" target="143" edge="1">
                    <mxGeometry relative="1" as="geometry">
                        <mxPoint x="-87.5" y="4810" as="targetPoint"/>
                        <Array as="points">
                            <mxPoint x="-247.5" y="4650"/>
                            <mxPoint x="-247.5" y="4710"/>
                            <mxPoint x="-207.5" y="4710"/>
                            <mxPoint x="-207.5" y="4810"/>
                            <mxPoint x="-117.5" y="4810"/>
                        </Array>
                    </mxGeometry>
                </mxCell>
                <mxCell id="141" value="Init" style="html=1;align=center;verticalAlign=top;rounded=1;absoluteArcSize=1;arcSize=10;dashed=0;fontColor=#FFFFFF;" parent="1" vertex="1">
                    <mxGeometry x="-917.5" y="4620" width="140" height="40" as="geometry"/>
                </mxCell>
                <mxCell id="142" value="Filter students" style="html=1;align=center;verticalAlign=top;rounded=1;absoluteArcSize=1;arcSize=10;dashed=0;fontColor=#FFFFFF;" parent="1" vertex="1">
                    <mxGeometry x="-187.5" y="4740" width="140" height="40" as="geometry"/>
                </mxCell>
                <mxCell id="143" value="ShowStudents" style="html=1;align=center;verticalAlign=top;rounded=1;absoluteArcSize=1;arcSize=10;dashed=0;fontColor=#FFFFFF;" parent="1" vertex="1">
                    <mxGeometry x="-187.5" y="4820" width="140" height="40" as="geometry"/>
                </mxCell>
                <mxCell id="144" value="ShowInfo" style="html=1;align=center;verticalAlign=top;rounded=1;absoluteArcSize=1;arcSize=10;dashed=0;fontColor=#FFFFFF;" parent="1" vertex="1">
                    <mxGeometry x="-187.5" y="4905" width="140" height="40" as="geometry"/>
                </mxCell>
                <mxCell id="145" style="edgeStyle=none;html=1;exitX=1;exitY=0.75;exitDx=0;exitDy=0;entryX=0.5;entryY=0;entryDx=0;entryDy=0;" parent="1" source="141" target="144" edge="1">
                    <mxGeometry relative="1" as="geometry">
                        <mxPoint x="-297.5" y="4660" as="sourcePoint"/>
                        <mxPoint x="-67.5" y="4830" as="targetPoint"/>
                        <Array as="points">
                            <mxPoint x="-247.5" y="4650"/>
                            <mxPoint x="-247.5" y="4710"/>
                            <mxPoint x="-207.5" y="4710"/>
                            <mxPoint x="-207.5" y="4880"/>
                            <mxPoint x="-117.5" y="4880"/>
                        </Array>
                    </mxGeometry>
                </mxCell>
                <mxCell id="146" style="edgeStyle=none;html=1;entryX=0.5;entryY=0;entryDx=0;entryDy=0;" parent="1" source="147" target="149" edge="1">
                    <mxGeometry relative="1" as="geometry"/>
                </mxCell>
                <mxCell id="147" value="PopupEvent" style="html=1;align=center;verticalAlign=top;rounded=1;absoluteArcSize=1;arcSize=10;dashed=0;fontColor=#FFFFFF;" parent="1" vertex="1">
                    <mxGeometry x="122.5" y="5030" width="140" height="40" as="geometry"/>
                </mxCell>
                <mxCell id="148" style="edgeStyle=none;html=1;exitX=1;exitY=0.75;exitDx=0;exitDy=0;entryX=0.5;entryY=0;entryDx=0;entryDy=0;" parent="1" source="141" target="147" edge="1">
                    <mxGeometry relative="1" as="geometry">
                        <mxPoint x="-297.5" y="4660" as="sourcePoint"/>
                        <mxPoint x="-67.5" y="4915" as="targetPoint"/>
                        <Array as="points">
                            <mxPoint x="-247.5" y="4650"/>
                            <mxPoint x="-247.5" y="4710"/>
                            <mxPoint x="-207.5" y="4710"/>
                            <mxPoint x="-207.5" y="4980"/>
                            <mxPoint x="192.5" y="4980"/>
                        </Array>
                    </mxGeometry>
                </mxCell>
                <mxCell id="149" value="" style="ellipse;html=1;shape=endState;fillColor=#000000;strokeColor=#000000;" parent="1" vertex="1">
                    <mxGeometry x="177.5" y="5120" width="30" height="30" as="geometry"/>
                </mxCell>
                <mxCell id="150" style="edgeStyle=none;html=1;entryX=0.5;entryY=0;entryDx=0;entryDy=0;fontSize=16;startArrow=none;" edge="1" parent="1" source="187" target="161">
                    <mxGeometry relative="1" as="geometry"/>
                </mxCell>
                <mxCell id="151" value="" style="ellipse;fillColor=#000000;strokeColor=none;" vertex="1" parent="1">
                    <mxGeometry x="455" y="50" width="30" height="30" as="geometry"/>
                </mxCell>
                <mxCell id="152" value="" style="line;strokeWidth=1;direction=south;html=1;dashed=1;dashPattern=20 20;fillColor=#b1ddf0;strokeColor=#10739e;" vertex="1" parent="1">
                    <mxGeometry x="-250" y="40" width="10" height="7500" as="geometry"/>
                </mxCell>
                <mxCell id="159" style="edgeStyle=none;html=1;entryX=0.5;entryY=0;entryDx=0;entryDy=0;fontSize=16;" edge="1" parent="1" source="161" target="162">
                    <mxGeometry relative="1" as="geometry">
                        <Array as="points">
                            <mxPoint x="-380" y="230"/>
                        </Array>
                    </mxGeometry>
                </mxCell>
                <mxCell id="160" style="edgeStyle=none;html=1;entryX=0.5;entryY=0;entryDx=0;entryDy=0;exitX=0.5;exitY=1;exitDx=0;exitDy=0;" edge="1" parent="1" source="168" target="265">
                    <mxGeometry relative="1" as="geometry">
                        <Array as="points">
                            <mxPoint x="150" y="470"/>
                            <mxPoint x="248" y="470"/>
                        </Array>
                    </mxGeometry>
                </mxCell>
                <mxCell id="481" style="edgeStyle=none;html=1;entryX=1;entryY=0.5;entryDx=0;entryDy=0;fontColor=default;exitX=0;exitY=0.5;exitDx=0;exitDy=0;" edge="1" parent="1" source="484" target="480">
                    <mxGeometry relative="1" as="geometry">
                        <mxPoint x="400" y="220" as="sourcePoint"/>
                        <Array as="points">
                            <mxPoint x="-270" y="220"/>
                            <mxPoint x="-270" y="380"/>
                        </Array>
                    </mxGeometry>
                </mxCell>
                <mxCell id="161" value="&lt;font style=&quot;font-size: 11px&quot;&gt;_Init&lt;/font&gt;" style="html=1;align=center;verticalAlign=top;rounded=1;absoluteArcSize=1;arcSize=10;dashed=0;fontSize=16;" vertex="1" parent="1">
                    <mxGeometry x="400" y="210" width="140" height="40" as="geometry"/>
                </mxCell>
                <mxCell id="162" value="&lt;font style=&quot;font-size: 11px&quot;&gt;_Init&lt;/font&gt;" style="html=1;align=center;verticalAlign=top;rounded=1;absoluteArcSize=1;arcSize=10;dashed=0;fontSize=16;" vertex="1" parent="1">
                    <mxGeometry x="-450" y="300" width="140" height="40" as="geometry"/>
                </mxCell>
                <mxCell id="163" value="&lt;font style=&quot;font-size: 11px&quot;&gt;loadJson()&lt;/font&gt;" style="html=1;align=center;verticalAlign=top;rounded=1;absoluteArcSize=1;arcSize=10;dashed=0;fontSize=16;" vertex="1" parent="1">
                    <mxGeometry x="-450" y="430" width="140" height="40" as="geometry"/>
                </mxCell>
                <mxCell id="164" style="edgeStyle=none;html=1;entryX=1;entryY=0.5;entryDx=0;entryDy=0;fontSize=16;exitX=0;exitY=0.5;exitDx=0;exitDy=0;startArrow=none;" edge="1" parent="1" source="484" target="163">
                    <mxGeometry relative="1" as="geometry">
                        <mxPoint x="400" y="230.0000000000001" as="sourcePoint"/>
                        <mxPoint x="-380" y="300" as="targetPoint"/>
                        <Array as="points">
                            <mxPoint x="-270" y="220"/>
                            <mxPoint x="-270" y="450"/>
                        </Array>
                    </mxGeometry>
                </mxCell>
                <mxCell id="482" value="url" style="edgeLabel;html=1;align=center;verticalAlign=middle;resizable=0;points=[];fontColor=default;" vertex="1" connectable="0" parent="164">
                    <mxGeometry x="0.693" y="1" relative="1" as="geometry">
                        <mxPoint as="offset"/>
                    </mxGeometry>
                </mxCell>
                <mxCell id="483" value="url" style="edgeLabel;html=1;align=center;verticalAlign=middle;resizable=0;points=[];fontColor=default;" vertex="1" connectable="0" parent="164">
                    <mxGeometry x="0.818" y="2" relative="1" as="geometry">
                        <mxPoint as="offset"/>
                    </mxGeometry>
                </mxCell>
                <mxCell id="165" value="&lt;font style=&quot;font-size: 11px&quot;&gt;_Init&lt;/font&gt;" style="html=1;align=center;verticalAlign=top;rounded=1;absoluteArcSize=1;arcSize=10;dashed=0;fontSize=16;" vertex="1" parent="1">
                    <mxGeometry x="-195" y="300" width="140" height="40" as="geometry"/>
                </mxCell>
                <mxCell id="166" style="edgeStyle=none;html=1;entryX=1;entryY=0.25;entryDx=0;entryDy=0;fontSize=11;fontColor=#050505;exitX=0;exitY=0.5;exitDx=0;exitDy=0;" edge="1" parent="1" source="168" target="189">
                    <mxGeometry relative="1" as="geometry">
                        <Array as="points">
                            <mxPoint x="-20" y="320"/>
                            <mxPoint x="-20" y="360"/>
                            <mxPoint x="-230" y="360"/>
                            <mxPoint x="-230" y="540"/>
                        </Array>
                    </mxGeometry>
                </mxCell>
                <mxCell id="167" style="edgeStyle=none;html=1;entryX=0.5;entryY=0;entryDx=0;entryDy=0;" edge="1" parent="1" source="168" target="258">
                    <mxGeometry relative="1" as="geometry">
                        <Array as="points">
                            <mxPoint x="10" y="320"/>
                            <mxPoint x="10" y="600"/>
                            <mxPoint x="-220" y="600"/>
                            <mxPoint x="-220" y="690"/>
                            <mxPoint x="-230" y="750"/>
                            <mxPoint x="-380" y="750"/>
                        </Array>
                    </mxGeometry>
                </mxCell>
                <mxCell id="479" style="edgeStyle=none;html=1;entryX=0.5;entryY=0;entryDx=0;entryDy=0;fontColor=default;exitX=0.5;exitY=1;exitDx=0;exitDy=0;" edge="1" parent="1" source="168" target="478">
                    <mxGeometry relative="1" as="geometry">
                        <Array as="points">
                            <mxPoint x="150" y="390"/>
                            <mxPoint x="248" y="390"/>
                        </Array>
                    </mxGeometry>
                </mxCell>
                <mxCell id="168" value="&lt;font style=&quot;font-size: 11px&quot;&gt;_Init&lt;/font&gt;" style="html=1;align=center;verticalAlign=top;rounded=1;absoluteArcSize=1;arcSize=10;dashed=0;fontSize=16;" vertex="1" parent="1">
                    <mxGeometry x="80" y="300" width="140" height="40" as="geometry"/>
                </mxCell>
                <mxCell id="169" style="edgeStyle=none;html=1;entryX=0.5;entryY=0;entryDx=0;entryDy=0;fontSize=16;" edge="1" parent="1" source="161" target="165">
                    <mxGeometry relative="1" as="geometry">
                        <mxPoint x="400" y="230.0000000000001" as="sourcePoint"/>
                        <mxPoint x="-380" y="300" as="targetPoint"/>
                        <Array as="points">
                            <mxPoint x="-125" y="230"/>
                        </Array>
                    </mxGeometry>
                </mxCell>
                <mxCell id="518" style="edgeStyle=none;html=1;fontColor=default;entryX=1;entryY=0.5;entryDx=0;entryDy=0;" edge="1" parent="1" source="170" target="519">
                    <mxGeometry relative="1" as="geometry">
                        <mxPoint x="-1290" y="550" as="targetPoint"/>
                    </mxGeometry>
                </mxCell>
                <mxCell id="530" value="entry.fullName" style="edgeLabel;html=1;align=center;verticalAlign=middle;resizable=0;points=[];fontColor=default;" vertex="1" connectable="0" parent="518">
                    <mxGeometry x="0.8523" y="-1" relative="1" as="geometry">
                        <mxPoint as="offset"/>
                    </mxGeometry>
                </mxCell>
                <mxCell id="170" value="&lt;span style=&quot;font-size: 11px&quot;&gt;_PopulateStudents&lt;/span&gt;" style="html=1;align=center;verticalAlign=top;rounded=1;absoluteArcSize=1;arcSize=10;dashed=0;fontSize=16;" vertex="1" parent="1">
                    <mxGeometry x="-450" y="530" width="140" height="40" as="geometry"/>
                </mxCell>
                <mxCell id="171" value="" style="edgeStyle=none;html=1;fontSize=11;entryX=0.5;entryY=0;entryDx=0;entryDy=0;" edge="1" parent="1" source="173" target="170">
                    <mxGeometry relative="1" as="geometry">
                        <mxPoint x="-435" y="530" as="targetPoint"/>
                    </mxGeometry>
                </mxCell>
                <mxCell id="172" value="JSON data" style="edgeLabel;html=1;align=center;verticalAlign=middle;resizable=0;points=[];fontSize=11;" vertex="1" connectable="0" parent="171">
                    <mxGeometry x="-0.2216" y="-1" relative="1" as="geometry">
                        <mxPoint as="offset"/>
                    </mxGeometry>
                </mxCell>
                <mxCell id="173" value="" style="fillColor=#ffffff;strokeColor=#000000;fontSize=11;" vertex="1" parent="1">
                    <mxGeometry x="-385" y="470" width="10" height="10" as="geometry"/>
                </mxCell>
                <mxCell id="174" style="edgeStyle=none;html=1;fontSize=16;exitX=0;exitY=0.5;exitDx=0;exitDy=0;" edge="1" parent="1" source="176">
                    <mxGeometry relative="1" as="geometry">
                        <mxPoint x="400" y="240" as="sourcePoint"/>
                        <mxPoint x="180" y="300" as="targetPoint"/>
                        <Array as="points">
                            <mxPoint x="180" y="245"/>
                        </Array>
                    </mxGeometry>
                </mxCell>
                <mxCell id="175" value="View, model" style="edgeLabel;html=1;align=center;verticalAlign=middle;resizable=0;points=[];fontSize=11;" vertex="1" connectable="0" parent="174">
                    <mxGeometry x="0.1616" y="1" relative="1" as="geometry">
                        <mxPoint as="offset"/>
                    </mxGeometry>
                </mxCell>
                <mxCell id="176" value="" style="fillColor=#ffffff;strokeColor=#000000;fontSize=11;" vertex="1" parent="1">
                    <mxGeometry x="390" y="240" width="10" height="10" as="geometry"/>
                </mxCell>
                <mxCell id="177" style="edgeStyle=none;html=1;entryX=0.5;entryY=0;entryDx=0;entryDy=0;" edge="1" parent="1" source="178" target="236">
                    <mxGeometry relative="1" as="geometry"/>
                </mxCell>
                <mxCell id="178" value="&lt;font style=&quot;font-size: 11px&quot;&gt;_ShowStudents&lt;/font&gt;" style="html=1;align=center;verticalAlign=top;rounded=1;absoluteArcSize=1;arcSize=10;dashed=0;fontSize=16;" vertex="1" parent="1">
                    <mxGeometry x="-160" y="680" width="140" height="40" as="geometry"/>
                </mxCell>
                <mxCell id="179" style="edgeStyle=none;html=1;entryX=1;entryY=0.25;entryDx=0;entryDy=0;fontSize=11;exitX=0.5;exitY=1;exitDx=0;exitDy=0;" edge="1" parent="1" source="181" target="178">
                    <mxGeometry relative="1" as="geometry">
                        <mxPoint x="215" y="375" as="sourcePoint"/>
                        <mxPoint x="80" y="435" as="targetPoint"/>
                        <Array as="points">
                            <mxPoint x="105" y="690"/>
                        </Array>
                    </mxGeometry>
                </mxCell>
                <mxCell id="180" value="studentsInDisplay" style="edgeLabel;html=1;align=left;verticalAlign=middle;resizable=0;points=[];fontSize=11;rotation=0;" vertex="1" connectable="0" parent="179">
                    <mxGeometry x="-0.5156" relative="1" as="geometry">
                        <mxPoint x="-45" y="30" as="offset"/>
                    </mxGeometry>
                </mxCell>
                <mxCell id="181" value="" style="fillColor=#ffffff;strokeColor=#000000;fontSize=11;" vertex="1" parent="1">
                    <mxGeometry x="100" y="340" width="10" height="10" as="geometry"/>
                </mxCell>
                <mxCell id="182" style="edgeStyle=none;html=1;entryX=0.5;entryY=0;entryDx=0;entryDy=0;fontSize=11;fontColor=#FFFFFF;exitX=1;exitY=0.5;exitDx=0;exitDy=0;exitPerimeter=0;" edge="1" parent="1" source="186" target="217">
                    <mxGeometry relative="1" as="geometry">
                        <mxPoint x="150" y="825" as="targetPoint"/>
                        <Array as="points">
                            <mxPoint x="-370" y="840"/>
                        </Array>
                    </mxGeometry>
                </mxCell>
                <mxCell id="183" style="edgeStyle=none;html=1;entryX=0.5;entryY=0;entryDx=0;entryDy=0;exitX=0.5;exitY=1;exitDx=0;exitDy=0;" edge="1" parent="1" source="221" target="219">
                    <mxGeometry relative="1" as="geometry">
                        <Array as="points">
                            <mxPoint x="160" y="890"/>
                            <mxPoint x="-90" y="890"/>
                        </Array>
                    </mxGeometry>
                </mxCell>
                <mxCell id="184" value="studentsInDisplay" style="edgeLabel;html=1;align=center;verticalAlign=middle;resizable=0;points=[];" vertex="1" connectable="0" parent="183">
                    <mxGeometry x="-0.1893" relative="1" as="geometry">
                        <mxPoint x="-98" y="70" as="offset"/>
                    </mxGeometry>
                </mxCell>
                <mxCell id="185" style="edgeStyle=none;html=1;entryX=0.5;entryY=0;entryDx=0;entryDy=0;" edge="1" parent="1" source="186" target="256">
                    <mxGeometry relative="1" as="geometry">
                        <Array as="points">
                            <mxPoint x="-200" y="840"/>
                            <mxPoint x="-200" y="1030"/>
                            <mxPoint x="-370" y="1030"/>
                        </Array>
                    </mxGeometry>
                </mxCell>
                <mxCell id="186" value="Click on &quot;filter by x&quot;" style="html=1;shape=mxgraph.infographic.ribbonSimple;notch1=20;notch2=0;align=center;verticalAlign=middle;fontSize=14;fontStyle=0;flipH=1;fillColor=#2A2A2A;fontColor=#FFFFFF;" vertex="1" parent="1">
                    <mxGeometry x="80" y="820" width="160" height="40" as="geometry"/>
                </mxCell>
                <mxCell id="187" value="DOMContentLoaded" style="html=1;shape=mxgraph.infographic.ribbonSimple;notch1=20;notch2=0;align=center;verticalAlign=middle;fontSize=14;fontStyle=0;flipH=1;fillColor=#2A2A2A;fontColor=#FFFFFF;" vertex="1" parent="1">
                    <mxGeometry x="380" y="120" width="180" height="40" as="geometry"/>
                </mxCell>
                <mxCell id="188" value="" style="edgeStyle=none;html=1;entryX=0;entryY=0;entryDx=90;entryDy=0;fontSize=16;endArrow=none;entryPerimeter=0;" edge="1" parent="1" source="151" target="187">
                    <mxGeometry relative="1" as="geometry">
                        <mxPoint x="435" y="80" as="sourcePoint"/>
                        <mxPoint x="435" y="210" as="targetPoint"/>
                    </mxGeometry>
                </mxCell>
                <mxCell id="189" value="&lt;font style=&quot;font-size: 11px&quot;&gt;_SortStudents&lt;/font&gt;" style="html=1;align=center;verticalAlign=top;rounded=1;absoluteArcSize=1;arcSize=10;dashed=0;fontSize=16;" vertex="1" parent="1">
                    <mxGeometry x="-450" y="595" width="140" height="40" as="geometry"/>
                </mxCell>
                <mxCell id="190" style="edgeStyle=none;html=1;entryX=0.5;entryY=0;entryDx=0;entryDy=0;" edge="1" parent="1" source="194" target="195">
                    <mxGeometry relative="1" as="geometry">
                        <Array as="points">
                            <mxPoint x="-380" y="1160"/>
                        </Array>
                    </mxGeometry>
                </mxCell>
                <mxCell id="191" style="edgeStyle=none;html=1;entryX=0.5;entryY=0;entryDx=0;entryDy=0;exitX=0.5;exitY=1;exitDx=0;exitDy=0;" edge="1" parent="1" source="216" target="197">
                    <mxGeometry relative="1" as="geometry">
                        <Array as="points">
                            <mxPoint x="150" y="1230"/>
                            <mxPoint x="-110" y="1230"/>
                        </Array>
                    </mxGeometry>
                </mxCell>
                <mxCell id="192" value="studentsInDisplay" style="edgeLabel;html=1;align=center;verticalAlign=middle;resizable=0;points=[];" vertex="1" connectable="0" parent="191">
                    <mxGeometry x="0.0201" y="1" relative="1" as="geometry">
                        <mxPoint x="-75" y="79" as="offset"/>
                    </mxGeometry>
                </mxCell>
                <mxCell id="193" style="edgeStyle=none;html=1;entryX=0.5;entryY=0;entryDx=0;entryDy=0;" edge="1" parent="1" source="194" target="249">
                    <mxGeometry relative="1" as="geometry">
                        <Array as="points">
                            <mxPoint x="-220" y="1160"/>
                            <mxPoint x="-220" y="1380"/>
                            <mxPoint x="-380" y="1380"/>
                        </Array>
                    </mxGeometry>
                </mxCell>
                <mxCell id="194" value="Chooses sorting" style="html=1;shape=mxgraph.infographic.ribbonSimple;notch1=20;notch2=0;align=center;verticalAlign=middle;fontSize=14;fontStyle=0;flipH=1;fillColor=#2A2A2A;fontColor=#FFFFFF;" vertex="1" parent="1">
                    <mxGeometry x="70" y="1140" width="160" height="40" as="geometry"/>
                </mxCell>
                <mxCell id="195" value="&lt;font style=&quot;font-size: 11px&quot;&gt;_SortStudents&lt;/font&gt;" style="html=1;align=center;verticalAlign=top;rounded=1;absoluteArcSize=1;arcSize=10;dashed=0;fontSize=16;" vertex="1" parent="1">
                    <mxGeometry x="-450" y="1220" width="140" height="40" as="geometry"/>
                </mxCell>
                <mxCell id="196" style="edgeStyle=none;html=1;entryX=0.5;entryY=0;entryDx=0;entryDy=0;" edge="1" parent="1" source="197" target="212">
                    <mxGeometry relative="1" as="geometry"/>
                </mxCell>
                <mxCell id="197" value="&lt;span style=&quot;font-size: 11px&quot;&gt;_ShowStudents&lt;/span&gt;" style="html=1;align=center;verticalAlign=top;rounded=1;absoluteArcSize=1;arcSize=10;dashed=0;fontSize=16;" vertex="1" parent="1">
                    <mxGeometry x="-180" y="1370" width="140" height="40" as="geometry"/>
                </mxCell>
                <mxCell id="198" style="edgeStyle=none;html=1;entryX=0.5;entryY=0;entryDx=0;entryDy=0;" edge="1" parent="1" source="199" target="251">
                    <mxGeometry relative="1" as="geometry">
                        <Array as="points">
                            <mxPoint x="-180" y="1505"/>
                            <mxPoint x="-180" y="1700"/>
                            <mxPoint x="-370" y="1700"/>
                        </Array>
                    </mxGeometry>
                </mxCell>
                <mxCell id="199" value="&quot;input&quot; on search" style="html=1;shape=mxgraph.infographic.ribbonSimple;notch1=20;notch2=0;align=center;verticalAlign=middle;fontSize=14;fontStyle=0;flipH=1;fillColor=#2A2A2A;fontColor=#FFFFFF;" vertex="1" parent="1">
                    <mxGeometry x="90" y="1485" width="160" height="40" as="geometry"/>
                </mxCell>
                <mxCell id="200" style="edgeStyle=none;html=1;entryX=0.5;entryY=0;entryDx=0;entryDy=0;startArrow=none;" edge="1" parent="1" source="222" target="211">
                    <mxGeometry relative="1" as="geometry"/>
                </mxCell>
                <mxCell id="201" value="matching students" style="edgeLabel;html=1;align=center;verticalAlign=middle;resizable=0;points=[];" vertex="1" connectable="0" parent="200">
                    <mxGeometry x="0.1805" y="3" relative="1" as="geometry">
                        <mxPoint x="-3" y="-4" as="offset"/>
                    </mxGeometry>
                </mxCell>
                <mxCell id="202" value="&lt;font style=&quot;font-size: 11px&quot;&gt;_SearchStudents&lt;/font&gt;" style="html=1;align=center;verticalAlign=top;rounded=1;absoluteArcSize=1;arcSize=10;dashed=0;fontSize=16;" vertex="1" parent="1">
                    <mxGeometry x="-440" y="1560" width="140" height="40" as="geometry"/>
                </mxCell>
                <mxCell id="203" style="edgeStyle=none;html=1;entryX=0.5;entryY=0;entryDx=0;entryDy=0;" edge="1" parent="1" source="204" target="237">
                    <mxGeometry relative="1" as="geometry"/>
                </mxCell>
                <mxCell id="204" value="&lt;font style=&quot;font-size: 11px&quot;&gt;_ShowStudents&lt;/font&gt;" style="html=1;align=center;verticalAlign=top;rounded=1;absoluteArcSize=1;arcSize=10;dashed=0;fontSize=16;" vertex="1" parent="1">
                    <mxGeometry x="-150" y="1690" width="140" height="40" as="geometry"/>
                </mxCell>
                <mxCell id="205" style="edgeStyle=none;html=1;entryX=0.75;entryY=0;entryDx=0;entryDy=0;fontSize=11;fontColor=#FFFFFF;" edge="1" parent="1" source="207" target="204">
                    <mxGeometry relative="1" as="geometry">
                        <Array as="points">
                            <mxPoint x="165" y="1570"/>
                            <mxPoint x="-45" y="1570"/>
                        </Array>
                    </mxGeometry>
                </mxCell>
                <mxCell id="206" value="students in display&lt;br&gt;" style="edgeLabel;html=1;align=left;verticalAlign=middle;resizable=0;points=[];fontSize=11;fontColor=#FFFFFF;" vertex="1" connectable="0" parent="205">
                    <mxGeometry x="0.5467" y="-2" relative="1" as="geometry">
                        <mxPoint x="-43" as="offset"/>
                    </mxGeometry>
                </mxCell>
                <mxCell id="207" value="" style="fillColor=#ffffff;strokeColor=#000000;fontSize=11;" vertex="1" parent="1">
                    <mxGeometry x="160" y="1525" width="10" height="10" as="geometry"/>
                </mxCell>
                <mxCell id="208" style="edgeStyle=none;html=1;entryX=0.25;entryY=0;entryDx=0;entryDy=0;fontSize=11;fontColor=#FFFFFF;" edge="1" parent="1" source="210" target="202">
                    <mxGeometry relative="1" as="geometry">
                        <Array as="points">
                            <mxPoint x="-220" y="1505"/>
                            <mxPoint x="-405" y="1505"/>
                        </Array>
                    </mxGeometry>
                </mxCell>
                <mxCell id="209" value="Search input" style="edgeLabel;html=1;align=center;verticalAlign=middle;resizable=0;points=[];fontSize=11;fontColor=#FFFFFF;" vertex="1" connectable="0" parent="208">
                    <mxGeometry x="0.7707" y="2" relative="1" as="geometry">
                        <mxPoint x="148" y="-2" as="offset"/>
                    </mxGeometry>
                </mxCell>
                <mxCell id="210" value="" style="fillColor=#ffffff;strokeColor=#000000;fontSize=11;" vertex="1" parent="1">
                    <mxGeometry x="80" y="1500" width="10" height="10" as="geometry"/>
                </mxCell>
                <mxCell id="211" value="&lt;font style=&quot;font-size: 11px&quot;&gt;_UpdateVisibleStudents&lt;/font&gt;" style="html=1;align=center;verticalAlign=top;rounded=1;absoluteArcSize=1;arcSize=10;dashed=0;fontSize=16;" vertex="1" parent="1">
                    <mxGeometry x="-440" y="1650" width="140" height="40" as="geometry"/>
                </mxCell>
                <mxCell id="212" value="" style="ellipse;html=1;shape=endState;fillColor=#000000;strokeColor=#000000;fontSize=11;fontColor=#FFFFFF;" vertex="1" parent="1">
                    <mxGeometry x="-125" y="1450" width="30" height="30" as="geometry"/>
                </mxCell>
                <mxCell id="213" style="edgeStyle=none;html=1;entryX=0.5;entryY=0;entryDx=0;entryDy=0;fontSize=11;fontColor=#FFFFFF;startArrow=none;" edge="1" parent="1" source="238" target="244">
                    <mxGeometry relative="1" as="geometry">
                        <Array as="points">
                            <mxPoint x="-85" y="1860"/>
                        </Array>
                    </mxGeometry>
                </mxCell>
                <mxCell id="214" value="&lt;font style=&quot;font-size: 11px&quot;&gt;_OpenPopup&lt;/font&gt;" style="html=1;align=center;verticalAlign=top;rounded=1;absoluteArcSize=1;arcSize=10;dashed=0;fontSize=16;" vertex="1" parent="1">
                    <mxGeometry x="-240" y="2010" width="140" height="40" as="geometry"/>
                </mxCell>
                <mxCell id="215" value="click on 'See more'" style="html=1;shape=mxgraph.infographic.ribbonSimple;notch1=20;notch2=0;align=center;verticalAlign=middle;fontSize=14;fontStyle=0;flipH=1;fillColor=#2A2A2A;fontColor=#FFFFFF;" vertex="1" parent="1">
                    <mxGeometry x="80" y="1840" width="180" height="40" as="geometry"/>
                </mxCell>
                <mxCell id="216" value="" style="fillColor=#ffffff;strokeColor=#000000;fontSize=11;" vertex="1" parent="1">
                    <mxGeometry x="145" y="1180" width="10" height="10" as="geometry"/>
                </mxCell>
                <mxCell id="217" value="&lt;font style=&quot;font-size: 11px&quot;&gt;_FilterStudents&lt;/font&gt;" style="html=1;align=center;verticalAlign=top;rounded=1;absoluteArcSize=1;arcSize=10;dashed=0;fontSize=16;" vertex="1" parent="1">
                    <mxGeometry x="-440" y="880" width="140" height="40" as="geometry"/>
                </mxCell>
                <mxCell id="218" style="edgeStyle=none;html=1;entryX=0.5;entryY=0;entryDx=0;entryDy=0;" edge="1" parent="1" source="219" target="220">
                    <mxGeometry relative="1" as="geometry"/>
                </mxCell>
                <mxCell id="219" value="&lt;span style=&quot;font-size: 11px&quot;&gt;_ShowStudents&lt;/span&gt;" style="html=1;align=center;verticalAlign=top;rounded=1;absoluteArcSize=1;arcSize=10;dashed=0;fontSize=16;" vertex="1" parent="1">
                    <mxGeometry x="-160" y="1020" width="140" height="40" as="geometry"/>
                </mxCell>
                <mxCell id="220" value="" style="ellipse;html=1;shape=endState;fillColor=#000000;strokeColor=#000000;fontSize=11;fontColor=#FFFFFF;" vertex="1" parent="1">
                    <mxGeometry x="-105" y="1100" width="30" height="30" as="geometry"/>
                </mxCell>
                <mxCell id="221" value="" style="fillColor=#ffffff;strokeColor=#000000;fontSize=11;" vertex="1" parent="1">
                    <mxGeometry x="155" y="860" width="10" height="10" as="geometry"/>
                </mxCell>
                <mxCell id="222" value="" style="fillColor=#ffffff;strokeColor=#000000;fontSize=11;" vertex="1" parent="1">
                    <mxGeometry x="-375" y="1600" width="10" height="10" as="geometry"/>
                </mxCell>
                <mxCell id="223" value="" style="edgeStyle=none;html=1;entryX=0.5;entryY=0;entryDx=0;entryDy=0;endArrow=none;" edge="1" parent="1" source="202" target="222">
                    <mxGeometry relative="1" as="geometry">
                        <mxPoint x="-370" y="1650" as="sourcePoint"/>
                        <mxPoint x="-370" y="1770" as="targetPoint"/>
                    </mxGeometry>
                </mxCell>
                <mxCell id="224" value="" style="fillColor=#ffffff;strokeColor=#000000;fontSize=11;" vertex="1" parent="1">
                    <mxGeometry x="-385" y="1260" width="10" height="10" as="geometry"/>
                </mxCell>
                <mxCell id="225" style="edgeStyle=none;html=1;entryX=0.5;entryY=0;entryDx=0;entryDy=0;startArrow=none;" edge="1" parent="1" source="224" target="227">
                    <mxGeometry relative="1" as="geometry"/>
                </mxCell>
                <mxCell id="226" value="matching students" style="edgeLabel;html=1;align=center;verticalAlign=middle;resizable=0;points=[];" vertex="1" connectable="0" parent="225">
                    <mxGeometry x="0.1805" y="3" relative="1" as="geometry">
                        <mxPoint as="offset"/>
                    </mxGeometry>
                </mxCell>
                <mxCell id="227" value="&lt;font style=&quot;font-size: 11px&quot;&gt;_UpdateVisibleStudents&lt;/font&gt;" style="html=1;align=center;verticalAlign=top;rounded=1;absoluteArcSize=1;arcSize=10;dashed=0;fontSize=16;" vertex="1" parent="1">
                    <mxGeometry x="-450" y="1330" width="140" height="40" as="geometry"/>
                </mxCell>
                <mxCell id="228" value="" style="fillColor=#ffffff;strokeColor=#000000;fontSize=11;" vertex="1" parent="1">
                    <mxGeometry x="-375" y="920" width="10" height="10" as="geometry"/>
                </mxCell>
                <mxCell id="229" style="edgeStyle=none;html=1;entryX=0.5;entryY=0;entryDx=0;entryDy=0;startArrow=none;" edge="1" parent="1" source="228" target="231">
                    <mxGeometry relative="1" as="geometry"/>
                </mxCell>
                <mxCell id="230" value="matching students" style="edgeLabel;html=1;align=center;verticalAlign=middle;resizable=0;points=[];" vertex="1" connectable="0" parent="229">
                    <mxGeometry x="0.1805" y="3" relative="1" as="geometry">
                        <mxPoint x="-3" y="-9" as="offset"/>
                    </mxGeometry>
                </mxCell>
                <mxCell id="231" value="&lt;font style=&quot;font-size: 11px&quot;&gt;_UpdateVisibleStudents&lt;/font&gt;" style="html=1;align=center;verticalAlign=top;rounded=1;absoluteArcSize=1;arcSize=10;dashed=0;fontSize=16;" vertex="1" parent="1">
                    <mxGeometry x="-440" y="980" width="140" height="40" as="geometry"/>
                </mxCell>
                <mxCell id="232" value="&lt;font style=&quot;font-size: 11px&quot;&gt;_UpdateVisibleStudents&lt;/font&gt;" style="html=1;align=center;verticalAlign=top;rounded=1;absoluteArcSize=1;arcSize=10;dashed=0;fontSize=16;" vertex="1" parent="1">
                    <mxGeometry x="-450" y="705" width="140" height="40" as="geometry"/>
                </mxCell>
                <mxCell id="233" style="edgeStyle=none;html=1;entryX=0.5;entryY=0;entryDx=0;entryDy=0;startArrow=none;" edge="1" parent="1" source="235" target="232">
                    <mxGeometry relative="1" as="geometry"/>
                </mxCell>
                <mxCell id="234" value="matching students" style="edgeLabel;html=1;align=center;verticalAlign=middle;resizable=0;points=[];" vertex="1" connectable="0" parent="233">
                    <mxGeometry x="0.1805" y="3" relative="1" as="geometry">
                        <mxPoint x="-3" y="-5" as="offset"/>
                    </mxGeometry>
                </mxCell>
                <mxCell id="235" value="" style="fillColor=#ffffff;strokeColor=#000000;fontSize=11;" vertex="1" parent="1">
                    <mxGeometry x="-385" y="635" width="10" height="10" as="geometry"/>
                </mxCell>
                <mxCell id="236" value="" style="ellipse;html=1;shape=endState;fillColor=#000000;strokeColor=#000000;fontSize=11;fontColor=#FFFFFF;" vertex="1" parent="1">
                    <mxGeometry x="-105" y="750" width="30" height="30" as="geometry"/>
                </mxCell>
                <mxCell id="237" value="" style="ellipse;html=1;shape=endState;fillColor=#000000;strokeColor=#000000;fontSize=11;fontColor=#FFFFFF;" vertex="1" parent="1">
                    <mxGeometry x="-95" y="1770" width="30" height="30" as="geometry"/>
                </mxCell>
                <mxCell id="238" value="" style="fillColor=#ffffff;strokeColor=#000000;fontSize=11;" vertex="1" parent="1">
                    <mxGeometry x="70" y="1855" width="10" height="10" as="geometry"/>
                </mxCell>
                <mxCell id="239" value="" style="edgeStyle=none;html=1;entryX=0.5;entryY=0;entryDx=0;entryDy=0;fontSize=11;fontColor=#FFFFFF;endArrow=none;" edge="1" parent="1" source="215" target="238">
                    <mxGeometry relative="1" as="geometry">
                        <mxPoint x="80" y="1860" as="sourcePoint"/>
                        <mxPoint x="-60" y="1900" as="targetPoint"/>
                        <Array as="points"/>
                    </mxGeometry>
                </mxCell>
                <mxCell id="240" value="students, student id" style="edgeLabel;html=1;align=center;verticalAlign=middle;resizable=0;points=[];" vertex="1" connectable="0" parent="239">
                    <mxGeometry x="-0.3263" y="-1" relative="1" as="geometry">
                        <mxPoint x="-248" y="116" as="offset"/>
                    </mxGeometry>
                </mxCell>
                <mxCell id="241" value="expelledStudents, student id" style="edgeLabel;html=1;align=center;verticalAlign=middle;resizable=0;points=[];" vertex="1" connectable="0" parent="239">
                    <mxGeometry x="-0.3263" y="-1" relative="1" as="geometry">
                        <mxPoint x="-99" y="226" as="offset"/>
                    </mxGeometry>
                </mxCell>
                <mxCell id="242" style="edgeStyle=none;html=1;entryX=0.5;entryY=0;entryDx=0;entryDy=0;exitX=0;exitY=0.5;exitDx=0;exitDy=0;" edge="1" parent="1" source="244" target="214">
                    <mxGeometry relative="1" as="geometry">
                        <Array as="points">
                            <mxPoint x="-170" y="1905"/>
                        </Array>
                    </mxGeometry>
                </mxCell>
                <mxCell id="243" style="edgeStyle=none;html=1;entryX=0.5;entryY=0;entryDx=0;entryDy=0;exitX=1;exitY=0.5;exitDx=0;exitDy=0;" edge="1" parent="1" source="244" target="245">
                    <mxGeometry relative="1" as="geometry">
                        <Array as="points">
                            <mxPoint x="-20" y="1905"/>
                        </Array>
                    </mxGeometry>
                </mxCell>
                <mxCell id="244" value="" style="rhombus;" vertex="1" parent="1">
                    <mxGeometry x="-100" y="1890" width="30" height="30" as="geometry"/>
                </mxCell>
                <mxCell id="245" value="&lt;font style=&quot;font-size: 11px&quot;&gt;_OpenPopup&lt;/font&gt;" style="html=1;align=center;verticalAlign=top;rounded=1;absoluteArcSize=1;arcSize=10;dashed=0;fontSize=16;" vertex="1" parent="1">
                    <mxGeometry x="-90" y="2120" width="140" height="40" as="geometry"/>
                </mxCell>
                <mxCell id="246" value="If student not expelled" style="text;html=1;align=center;verticalAlign=middle;resizable=0;points=[];autosize=1;strokeColor=none;fillColor=none;" vertex="1" parent="1">
                    <mxGeometry x="-235" y="1890" width="130" height="20" as="geometry"/>
                </mxCell>
                <mxCell id="247" value="If student expelled" style="text;html=1;align=center;verticalAlign=middle;resizable=0;points=[];autosize=1;strokeColor=none;fillColor=none;" vertex="1" parent="1">
                    <mxGeometry x="-60" y="1890" width="110" height="20" as="geometry"/>
                </mxCell>
                <mxCell id="248" style="edgeStyle=none;html=1;entryX=0.5;entryY=1;entryDx=0;entryDy=0;" edge="1" parent="1" source="249" target="261">
                    <mxGeometry relative="1" as="geometry">
                        <Array as="points">
                            <mxPoint x="-530" y="1420"/>
                        </Array>
                    </mxGeometry>
                </mxCell>
                <mxCell id="249" value="&lt;font style=&quot;font-size: 11px&quot;&gt;_UpdateInfo&lt;/font&gt;" style="html=1;align=center;verticalAlign=top;rounded=1;absoluteArcSize=1;arcSize=10;dashed=0;fontSize=16;" vertex="1" parent="1">
                    <mxGeometry x="-450" y="1400" width="140" height="40" as="geometry"/>
                </mxCell>
                <mxCell id="250" style="edgeStyle=none;html=1;entryX=0.25;entryY=1;entryDx=0;entryDy=0;" edge="1" parent="1" source="251" target="261">
                    <mxGeometry relative="1" as="geometry">
                        <Array as="points">
                            <mxPoint x="-590" y="1690"/>
                        </Array>
                    </mxGeometry>
                </mxCell>
                <mxCell id="251" value="&lt;font style=&quot;font-size: 11px&quot;&gt;_UpdateInfo&lt;/font&gt;" style="html=1;align=center;verticalAlign=top;rounded=1;absoluteArcSize=1;arcSize=10;dashed=0;fontSize=16;" vertex="1" parent="1">
                    <mxGeometry x="-440" y="1720" width="140" height="40" as="geometry"/>
                </mxCell>
                <mxCell id="255" style="edgeStyle=none;html=1;entryX=1;entryY=0.5;entryDx=0;entryDy=0;" edge="1" parent="1" source="256" target="261">
                    <mxGeometry relative="1" as="geometry"/>
                </mxCell>
                <mxCell id="256" value="&lt;font style=&quot;font-size: 11px&quot;&gt;_UpdateInfo&lt;/font&gt;" style="html=1;align=center;verticalAlign=top;rounded=1;absoluteArcSize=1;arcSize=10;dashed=0;fontSize=16;" vertex="1" parent="1">
                    <mxGeometry x="-440" y="1040" width="140" height="40" as="geometry"/>
                </mxCell>
                <mxCell id="257" style="edgeStyle=none;html=1;entryX=0.75;entryY=0;entryDx=0;entryDy=0;" edge="1" parent="1" source="258" target="261">
                    <mxGeometry relative="1" as="geometry"/>
                </mxCell>
                <mxCell id="258" value="&lt;font style=&quot;font-size: 11px&quot;&gt;_UpdateInfo&lt;/font&gt;" style="html=1;align=center;verticalAlign=top;rounded=1;absoluteArcSize=1;arcSize=10;dashed=0;fontSize=16;" vertex="1" parent="1">
                    <mxGeometry x="-450" y="765" width="140" height="40" as="geometry"/>
                </mxCell>
                <mxCell id="259" value="&lt;span style=&quot;font-size: 11px&quot;&gt;_GetHouseInfo&lt;/span&gt;" style="html=1;align=center;verticalAlign=top;rounded=1;absoluteArcSize=1;arcSize=10;dashed=0;fontSize=16;" vertex="1" parent="1">
                    <mxGeometry x="-710" y="1050" width="140" height="40" as="geometry"/>
                </mxCell>
                <mxCell id="260" value="&lt;span style=&quot;font-size: 11px&quot;&gt;_GetGeneralInfo&lt;/span&gt;" style="html=1;align=center;verticalAlign=top;rounded=1;absoluteArcSize=1;arcSize=10;dashed=0;fontSize=16;" vertex="1" parent="1">
                    <mxGeometry x="-710" y="1110" width="140" height="40" as="geometry"/>
                </mxCell>
                <mxCell id="261" value="" style="whiteSpace=wrap;html=1;fillColor=none;rounded=1;dashed=1;allowArrows=0;pointerEvents=0;" vertex="1" parent="1">
                    <mxGeometry x="-740" y="1010" width="200" height="170" as="geometry"/>
                </mxCell>
                <mxCell id="262" style="edgeStyle=none;html=1;" edge="1" parent="1" source="264" target="259">
                    <mxGeometry relative="1" as="geometry"/>
                </mxCell>
                <mxCell id="263" style="edgeStyle=none;html=1;entryX=0;entryY=0.5;entryDx=0;entryDy=0;" edge="1" parent="1" source="264" target="260">
                    <mxGeometry relative="1" as="geometry">
                        <Array as="points">
                            <mxPoint x="-730" y="1020"/>
                            <mxPoint x="-730" y="1130"/>
                        </Array>
                    </mxGeometry>
                </mxCell>
                <mxCell id="264" value="UpdateInfo" style="text;html=1;align=center;verticalAlign=middle;resizable=0;points=[];autosize=1;strokeColor=none;fillColor=none;" vertex="1" parent="1">
                    <mxGeometry x="-675" y="1010" width="70" height="20" as="geometry"/>
                </mxCell>
                <mxCell id="265" value="&lt;font style=&quot;font-size: 11px&quot;&gt;_ObservePopup&lt;/font&gt;" style="html=1;align=center;verticalAlign=top;rounded=1;absoluteArcSize=1;arcSize=10;dashed=0;fontSize=16;" vertex="1" parent="1">
                    <mxGeometry x="177.5" y="490" width="140" height="40" as="geometry"/>
                </mxCell>
                <mxCell id="292" style="edgeStyle=none;html=1;entryX=0.5;entryY=0;entryDx=0;entryDy=0;fontColor=#FFFFFF;exitX=0;exitY=0.5;exitDx=0;exitDy=0;" edge="1" parent="1" source="311" target="301">
                    <mxGeometry relative="1" as="geometry">
                        <Array as="points">
                            <mxPoint x="-370" y="2300"/>
                        </Array>
                    </mxGeometry>
                </mxCell>
                <mxCell id="293" value="Student" style="edgeLabel;html=1;align=center;verticalAlign=middle;resizable=0;points=[];fontColor=#FFFFFF;" vertex="1" connectable="0" parent="292">
                    <mxGeometry x="0.2186" y="1" relative="1" as="geometry">
                        <mxPoint as="offset"/>
                    </mxGeometry>
                </mxCell>
                <mxCell id="294" style="edgeStyle=none;html=1;entryX=0.5;entryY=0;entryDx=0;entryDy=0;fontColor=#FFFFFF;startArrow=none;" edge="1" parent="1" source="303" target="302">
                    <mxGeometry relative="1" as="geometry">
                        <Array as="points">
                            <mxPoint x="-100" y="2325"/>
                        </Array>
                    </mxGeometry>
                </mxCell>
                <mxCell id="295" value="Students in Display" style="edgeLabel;html=1;align=center;verticalAlign=middle;resizable=0;points=[];fontColor=#FFFFFF;" vertex="1" connectable="0" parent="294">
                    <mxGeometry x="0.1829" y="-1" relative="1" as="geometry">
                        <mxPoint x="-44" y="41" as="offset"/>
                    </mxGeometry>
                </mxCell>
                <mxCell id="296" style="edgeStyle=none;html=1;entryX=0.5;entryY=0;entryDx=0;entryDy=0;fontColor=#FFFFFF;" edge="1" parent="1" source="299" target="304">
                    <mxGeometry relative="1" as="geometry">
                        <Array as="points">
                            <mxPoint x="190" y="2460"/>
                            <mxPoint x="-360" y="2460"/>
                        </Array>
                    </mxGeometry>
                </mxCell>
                <mxCell id="297" style="edgeStyle=none;html=1;entryX=0.5;entryY=0;entryDx=0;entryDy=0;fontColor=#FFFFFF;" edge="1" parent="1" source="299" target="306">
                    <mxGeometry relative="1" as="geometry">
                        <Array as="points">
                            <mxPoint x="190" y="2460"/>
                            <mxPoint x="-110" y="2460"/>
                        </Array>
                    </mxGeometry>
                </mxCell>
                <mxCell id="298" style="edgeStyle=none;html=1;entryX=0.5;entryY=0;entryDx=0;entryDy=0;fontColor=#FFFFFF;" edge="1" parent="1" source="299" target="307">
                    <mxGeometry relative="1" as="geometry">
                        <Array as="points">
                            <mxPoint x="190" y="2460"/>
                            <mxPoint x="160" y="2460"/>
                        </Array>
                    </mxGeometry>
                </mxCell>
                <mxCell id="299" value="Expell btn clicked" style="html=1;shape=mxgraph.infographic.ribbonSimple;notch1=20;notch2=0;align=center;verticalAlign=middle;fontSize=14;fontStyle=0;flipH=1;fillColor=#2A2A2A;fontColor=#FFFFFF;" vertex="1" parent="1">
                    <mxGeometry x="110" y="2280" width="160" height="40" as="geometry"/>
                </mxCell>
                <mxCell id="300" style="edgeStyle=none;html=1;entryX=0.5;entryY=0;entryDx=0;entryDy=0;fontColor=#FFFFFF;exitX=0;exitY=0.5;exitDx=0;exitDy=0;" edge="1" parent="1" source="301" target="309">
                    <mxGeometry relative="1" as="geometry">
                        <Array as="points">
                            <mxPoint x="-480" y="2350"/>
                            <mxPoint x="-480" y="2760"/>
                            <mxPoint x="-370" y="2760"/>
                        </Array>
                    </mxGeometry>
                </mxCell>
                <mxCell id="301" value="ExpellStudents" style="html=1;align=center;verticalAlign=top;rounded=1;absoluteArcSize=1;arcSize=10;dashed=0;fontColor=#FFFFFF;" vertex="1" parent="1">
                    <mxGeometry x="-440" y="2330" width="140" height="40" as="geometry"/>
                </mxCell>
                <mxCell id="302" value="ShowStudents" style="html=1;align=center;verticalAlign=top;rounded=1;absoluteArcSize=1;arcSize=10;dashed=0;fontColor=#FFFFFF;" vertex="1" parent="1">
                    <mxGeometry x="-170" y="2400" width="140" height="40" as="geometry"/>
                </mxCell>
                <mxCell id="303" value="" style="fillColor=#ffffff;strokeColor=#000000;fontColor=#FFFFFF;" vertex="1" parent="1">
                    <mxGeometry x="110" y="2320" width="10" height="10" as="geometry"/>
                </mxCell>
                <mxCell id="304" value="ResetInfo" style="html=1;align=center;verticalAlign=top;rounded=1;absoluteArcSize=1;arcSize=10;dashed=0;fontColor=#FFFFFF;" vertex="1" parent="1">
                    <mxGeometry x="-430" y="2520" width="140" height="40" as="geometry"/>
                </mxCell>
                <mxCell id="305" value="UpdateInfo" style="html=1;align=center;verticalAlign=top;rounded=1;absoluteArcSize=1;arcSize=10;dashed=0;fontColor=#FFFFFF;" vertex="1" parent="1">
                    <mxGeometry x="-430" y="2590" width="140" height="40" as="geometry"/>
                </mxCell>
                <mxCell id="306" value="ShowInfo" style="html=1;align=center;verticalAlign=top;rounded=1;absoluteArcSize=1;arcSize=10;dashed=0;fontColor=#FFFFFF;" vertex="1" parent="1">
                    <mxGeometry x="-180" y="2640" width="140" height="40" as="geometry"/>
                </mxCell>
                <mxCell id="307" value="PopupEvent" style="html=1;align=center;verticalAlign=top;rounded=1;absoluteArcSize=1;arcSize=10;dashed=0;fontColor=#FFFFFF;" vertex="1" parent="1">
                    <mxGeometry x="90" y="2700" width="140" height="40" as="geometry"/>
                </mxCell>
                <mxCell id="308" style="edgeStyle=none;html=1;entryX=1;entryY=0.5;entryDx=0;entryDy=0;fontColor=#FFFFFF;exitX=0;exitY=0;exitDx=80;exitDy=40;exitPerimeter=0;" edge="1" parent="1" source="299" target="305">
                    <mxGeometry relative="1" as="geometry">
                        <mxPoint x="200" y="2330" as="sourcePoint"/>
                        <mxPoint x="-350" y="2530" as="targetPoint"/>
                        <Array as="points">
                            <mxPoint x="190" y="2460"/>
                            <mxPoint x="-250" y="2460"/>
                            <mxPoint x="-250" y="2610"/>
                        </Array>
                    </mxGeometry>
                </mxCell>
                <mxCell id="309" value="" style="whiteSpace=wrap;html=1;fontColor=#FFFFFF;dashed=1;fillColor=default;pointerEvents=0;allowArrows=0;rounded=1;" vertex="1" parent="1">
                    <mxGeometry x="-480" y="2780" width="220" height="275" as="geometry"/>
                </mxCell>
                <mxCell id="310" value="Expell Students" style="text;html=1;align=center;verticalAlign=middle;resizable=0;points=[];autosize=1;strokeColor=none;fillColor=none;fontColor=#FFFFFF;" vertex="1" parent="1">
                    <mxGeometry x="-415" y="2790" width="100" height="20" as="geometry"/>
                </mxCell>
                <mxCell id="311" value="" style="fillColor=#ffffff;strokeColor=#000000;fontColor=#FFFFFF;" vertex="1" parent="1">
                    <mxGeometry x="100" y="2295" width="10" height="10" as="geometry"/>
                </mxCell>
                <mxCell id="312" value="set student's expelled flag to true" style="shape=note2;boundedLbl=1;whiteSpace=wrap;html=1;size=25;verticalAlign=top;align=center;rounded=1;pointerEvents=0;fontColor=#FFFFFF;fillColor=none;" vertex="1" parent="1">
                    <mxGeometry x="-460" y="2830" width="190" height="60" as="geometry"/>
                </mxCell>
                <mxCell id="313" value="remove student from students and students in display array" style="shape=note2;boundedLbl=1;whiteSpace=wrap;html=1;size=25;verticalAlign=top;align=center;rounded=1;pointerEvents=0;fontColor=#FFFFFF;fillColor=none;" vertex="1" parent="1">
                    <mxGeometry x="-460" y="2900" width="190" height="60" as="geometry"/>
                </mxCell>
                <mxCell id="314" value="add student to expelledStudents array" style="shape=note2;boundedLbl=1;whiteSpace=wrap;html=1;size=25;verticalAlign=top;align=center;rounded=1;pointerEvents=0;fontColor=#FFFFFF;fillColor=none;" vertex="1" parent="1">
                    <mxGeometry x="-460" y="2975" width="190" height="60" as="geometry"/>
                </mxCell>
                <mxCell id="315" value="Model" style="text;align=center;fontSize=16;fontStyle=1;spacing=-1;" vertex="1" parent="1">
                    <mxGeometry x="-400" y="2170" width="60" height="20" as="geometry"/>
                </mxCell>
                <mxCell id="316" value="View" style="text;align=center;fontSize=16;fontStyle=1;spacing=-1;" vertex="1" parent="1">
                    <mxGeometry x="-130" y="2170" width="60" height="20" as="geometry"/>
                </mxCell>
                <mxCell id="317" value="Controller" style="text;align=center;fontSize=16;fontStyle=1;spacing=-1;" vertex="1" parent="1">
                    <mxGeometry x="160" y="2170" width="60" height="20" as="geometry"/>
                </mxCell>
                <mxCell id="318" value="Main" style="text;align=center;fontSize=16;fontStyle=1;spacing=-1;" vertex="1" parent="1">
                    <mxGeometry x="480" y="2170" width="60" height="20" as="geometry"/>
                </mxCell>
                <mxCell id="319" value="Info" style="text;align=center;fontSize=16;fontStyle=1;spacing=-1;" vertex="1" parent="1">
                    <mxGeometry x="-660" y="2170" width="60" height="20" as="geometry"/>
                </mxCell>
                <mxCell id="320" value="Hacker" style="text;align=center;fontSize=16;fontStyle=1;spacing=-1;" vertex="1" parent="1">
                    <mxGeometry x="-990" y="2170" width="60" height="20" as="geometry"/>
                </mxCell>
                <mxCell id="321" style="edgeStyle=none;html=1;entryX=0.5;entryY=0;entryDx=0;entryDy=0;exitX=0;exitY=0.5;exitDx=0;exitDy=0;" edge="1" parent="1" source="333" target="327">
                    <mxGeometry relative="1" as="geometry">
                        <mxPoint x="90" y="3130" as="sourcePoint"/>
                        <Array as="points">
                            <mxPoint x="-350" y="3125"/>
                        </Array>
                    </mxGeometry>
                </mxCell>
                <mxCell id="322" value="student" style="edgeLabel;html=1;align=center;verticalAlign=middle;resizable=0;points=[];" vertex="1" connectable="0" parent="321">
                    <mxGeometry x="0.3921" relative="1" as="geometry">
                        <mxPoint as="offset"/>
                    </mxGeometry>
                </mxCell>
                <mxCell id="323" style="edgeStyle=none;html=1;entryX=1;entryY=0.5;entryDx=0;entryDy=0;exitX=0;exitY=0;exitDx=160;exitDy=40;exitPerimeter=0;" edge="1" parent="1" source="325" target="330">
                    <mxGeometry relative="1" as="geometry">
                        <Array as="points">
                            <mxPoint x="130" y="3410"/>
                        </Array>
                    </mxGeometry>
                </mxCell>
                <mxCell id="324" style="edgeStyle=none;html=1;entryX=0.5;entryY=0;entryDx=0;entryDy=0;" edge="1" parent="1" source="325" target="331">
                    <mxGeometry relative="1" as="geometry"/>
                </mxCell>
                <mxCell id="325" value="Prefect Btn clicked" style="html=1;shape=mxgraph.infographic.ribbonSimple;notch1=20;notch2=0;align=center;verticalAlign=middle;fontSize=14;fontStyle=0;flipH=1;" vertex="1" parent="1">
                    <mxGeometry x="130" y="3120" width="160" height="40" as="geometry"/>
                </mxCell>
                <mxCell id="326" style="edgeStyle=none;html=1;entryX=0.5;entryY=0;entryDx=0;entryDy=0;exitX=0;exitY=0.5;exitDx=0;exitDy=0;" edge="1" parent="1" source="327" target="337">
                    <mxGeometry relative="1" as="geometry">
                        <Array as="points">
                            <mxPoint x="-465" y="3210"/>
                            <mxPoint x="-465" y="3350"/>
                            <mxPoint x="-355" y="3350"/>
                        </Array>
                    </mxGeometry>
                </mxCell>
                <mxCell id="327" value="MakePrefect" style="html=1;align=center;verticalAlign=top;rounded=1;absoluteArcSize=1;arcSize=10;dashed=0;" vertex="1" parent="1">
                    <mxGeometry x="-420" y="3190" width="140" height="40" as="geometry"/>
                </mxCell>
                <mxCell id="328" value="FilterStudents" style="html=1;align=center;verticalAlign=top;rounded=1;absoluteArcSize=1;arcSize=10;dashed=0;" vertex="1" parent="1">
                    <mxGeometry x="-420" y="3270" width="140" height="40" as="geometry"/>
                </mxCell>
                <mxCell id="329" value="ShowStudents" style="html=1;align=center;verticalAlign=top;rounded=1;absoluteArcSize=1;arcSize=10;dashed=0;" vertex="1" parent="1">
                    <mxGeometry x="-160" y="3320" width="140" height="40" as="geometry"/>
                </mxCell>
                <mxCell id="330" value="ShowInfo" style="html=1;align=center;verticalAlign=top;rounded=1;absoluteArcSize=1;arcSize=10;dashed=0;" vertex="1" parent="1">
                    <mxGeometry x="-160" y="3390" width="140" height="40" as="geometry"/>
                </mxCell>
                <mxCell id="331" value="PopupEvent" style="html=1;align=center;verticalAlign=top;rounded=1;absoluteArcSize=1;arcSize=10;dashed=0;" vertex="1" parent="1">
                    <mxGeometry x="140" y="3450" width="140" height="40" as="geometry"/>
                </mxCell>
                <mxCell id="332" style="edgeStyle=none;html=1;entryX=0.5;entryY=0;entryDx=0;entryDy=0;exitX=1;exitY=0.5;exitDx=0;exitDy=0;exitPerimeter=0;startArrow=none;" edge="1" parent="1" source="325" target="328">
                    <mxGeometry relative="1" as="geometry">
                        <mxPoint x="140" y="3150" as="sourcePoint"/>
                        <mxPoint x="-340" y="3200" as="targetPoint"/>
                        <Array as="points">
                            <mxPoint x="-180" y="3140"/>
                            <mxPoint x="-180" y="3250"/>
                            <mxPoint x="-350" y="3250"/>
                        </Array>
                    </mxGeometry>
                </mxCell>
                <mxCell id="333" value="" style="fillColor=#ffffff;strokeColor=#000000;" vertex="1" parent="1">
                    <mxGeometry x="120" y="3120" width="10" height="10" as="geometry"/>
                </mxCell>
                <mxCell id="334" style="edgeStyle=none;html=1;entryX=0.5;entryY=0;entryDx=0;entryDy=0;" edge="1" parent="1" source="336" target="329">
                    <mxGeometry relative="1" as="geometry">
                        <Array as="points">
                            <mxPoint x="-90" y="3155"/>
                        </Array>
                    </mxGeometry>
                </mxCell>
                <mxCell id="335" value="studentsInDisplay" style="edgeLabel;html=1;align=center;verticalAlign=middle;resizable=0;points=[];" vertex="1" connectable="0" parent="334">
                    <mxGeometry x="0.6467" y="-1" relative="1" as="geometry">
                        <mxPoint as="offset"/>
                    </mxGeometry>
                </mxCell>
                <mxCell id="336" value="" style="fillColor=#ffffff;strokeColor=#000000;" vertex="1" parent="1">
                    <mxGeometry x="120" y="3150" width="10" height="10" as="geometry"/>
                </mxCell>
                <mxCell id="337" value="" style="whiteSpace=wrap;html=1;dashed=1;fillColor=default;pointerEvents=0;allowArrows=0;rounded=1;fontStyle=1" vertex="1" parent="1">
                    <mxGeometry x="-480" y="3520" width="830" height="620" as="geometry"/>
                </mxCell>
                <mxCell id="338" value="Make Prefect" style="text;html=1;align=center;verticalAlign=middle;resizable=0;points=[];autosize=1;strokeColor=none;fillColor=none;" vertex="1" parent="1">
                    <mxGeometry x="-390" y="3530" width="90" height="20" as="geometry"/>
                </mxCell>
                <mxCell id="339" value="Define Max Amount of Students allowed as prefects per house" style="shape=note2;boundedLbl=1;whiteSpace=wrap;html=1;size=25;verticalAlign=top;align=left;rounded=1;pointerEvents=0;fillColor=none;perimeterSpacing=0;labelBackgroundColor=none;" vertex="1" parent="1">
                    <mxGeometry x="-450" y="3560" width="210" height="60" as="geometry"/>
                </mxCell>
                <mxCell id="340" value="Define Max Amount of Students allowed as prefects per gender" style="shape=note2;boundedLbl=1;whiteSpace=wrap;html=1;size=25;verticalAlign=top;align=left;rounded=1;pointerEvents=0;fillColor=none;perimeterSpacing=0;labelBackgroundColor=none;" vertex="1" parent="1">
                    <mxGeometry x="-450" y="3640" width="210" height="60" as="geometry"/>
                </mxCell>
                <mxCell id="341" style="edgeStyle=none;html=1;entryX=0.5;entryY=0;entryDx=0;entryDy=0;exitX=0.62;exitY=1.006;exitDx=0;exitDy=0;exitPerimeter=0;" edge="1" parent="1" source="342" target="344">
                    <mxGeometry relative="1" as="geometry"/>
                </mxCell>
                <mxCell id="342" value="Define a counter for the amount of prefects in the student's house, and amount of prefects from each gender" style="shape=note2;boundedLbl=1;whiteSpace=wrap;html=1;size=25;verticalAlign=top;align=left;rounded=1;pointerEvents=0;fillColor=none;perimeterSpacing=0;labelBackgroundColor=none;" vertex="1" parent="1">
                    <mxGeometry x="-450" y="3720" width="210" height="80" as="geometry"/>
                </mxCell>
                <mxCell id="343" style="edgeStyle=none;html=1;entryX=0.5;entryY=0;entryDx=0;entryDy=0;exitX=0.834;exitY=0.001;exitDx=0;exitDy=0;exitPerimeter=0;" edge="1" parent="1" source="344" target="361">
                    <mxGeometry relative="1" as="geometry">
                        <Array as="points">
                            <mxPoint x="-200" y="3770"/>
                            <mxPoint x="90" y="3770"/>
                        </Array>
                    </mxGeometry>
                </mxCell>
                <mxCell id="344" value="" style="whiteSpace=wrap;html=1;dashed=1;fillColor=none;pointerEvents=0;allowArrows=1;rounded=1;fontStyle=1" vertex="1" parent="1">
                    <mxGeometry x="-450" y="3850" width="300" height="260" as="geometry"/>
                </mxCell>
                <mxCell id="345" style="edgeStyle=none;html=1;entryX=1;entryY=0.5;entryDx=0;entryDy=0;" edge="1" parent="1" source="349" target="352">
                    <mxGeometry relative="1" as="geometry"/>
                </mxCell>
                <mxCell id="346" value="false" style="edgeLabel;html=1;align=center;verticalAlign=middle;resizable=0;points=[];" vertex="1" connectable="0" parent="345">
                    <mxGeometry x="-0.1722" relative="1" as="geometry">
                        <mxPoint as="offset"/>
                    </mxGeometry>
                </mxCell>
                <mxCell id="347" style="edgeStyle=none;html=1;entryX=0.5;entryY=0;entryDx=0;entryDy=0;" edge="1" parent="1" source="349" target="355">
                    <mxGeometry relative="1" as="geometry"/>
                </mxCell>
                <mxCell id="348" value="true" style="edgeLabel;html=1;align=center;verticalAlign=middle;resizable=0;points=[];" vertex="1" connectable="0" parent="347">
                    <mxGeometry x="-0.3713" y="-1" relative="1" as="geometry">
                        <mxPoint as="offset"/>
                    </mxGeometry>
                </mxCell>
                <mxCell id="349" value="" style="rhombus;rounded=0;pointerEvents=0;fillColor=none;strokeColor=default;labelBackgroundColor=none;" vertex="1" parent="1">
                    <mxGeometry x="-360" y="3890" width="30" height="30" as="geometry"/>
                </mxCell>
                <mxCell id="350" value="Counting prefects by house" style="text;html=1;align=center;verticalAlign=middle;resizable=0;points=[];autosize=1;strokeColor=none;fillColor=none;" vertex="1" parent="1">
                    <mxGeometry x="-405" y="3860" width="160" height="20" as="geometry"/>
                </mxCell>
                <mxCell id="351" value="if student.house in students &lt;br&gt;is equal current student.house" style="text;html=1;align=left;verticalAlign=middle;resizable=0;points=[];autosize=1;strokeColor=none;fillColor=none;" vertex="1" parent="1">
                    <mxGeometry x="-330" y="3890" width="180" height="30" as="geometry"/>
                </mxCell>
                <mxCell id="352" value="" style="shape=sumEllipse;perimeter=ellipsePerimeter;whiteSpace=wrap;html=1;backgroundOutline=1;rounded=0;pointerEvents=0;strokeColor=default;fillColor=none;" vertex="1" parent="1">
                    <mxGeometry x="-430" y="3890" width="30" height="30" as="geometry"/>
                </mxCell>
                <mxCell id="353" value="false" style="edgeStyle=none;html=1;entryX=1;entryY=0.5;entryDx=0;entryDy=0;" edge="1" parent="1" source="355" target="357">
                    <mxGeometry relative="1" as="geometry">
                        <mxPoint as="offset"/>
                    </mxGeometry>
                </mxCell>
                <mxCell id="354" value="true" style="edgeStyle=none;html=1;entryX=0.5;entryY=0;entryDx=0;entryDy=0;" edge="1" parent="1" source="355" target="358">
                    <mxGeometry relative="1" as="geometry"/>
                </mxCell>
                <mxCell id="355" value="" style="rhombus;rounded=0;pointerEvents=0;strokeColor=default;fillColor=none;labelBackgroundColor=none;" vertex="1" parent="1">
                    <mxGeometry x="-360" y="3960" width="30" height="30" as="geometry"/>
                </mxCell>
                <mxCell id="356" value="if student in students &lt;br&gt;is prefect" style="text;html=1;align=left;verticalAlign=middle;resizable=0;points=[];autosize=1;strokeColor=none;fillColor=none;" vertex="1" parent="1">
                    <mxGeometry x="-330" y="3960" width="130" height="30" as="geometry"/>
                </mxCell>
                <mxCell id="357" value="" style="shape=sumEllipse;perimeter=ellipsePerimeter;whiteSpace=wrap;html=1;backgroundOutline=1;rounded=0;pointerEvents=0;strokeColor=default;fillColor=none;" vertex="1" parent="1">
                    <mxGeometry x="-430" y="3960" width="30" height="30" as="geometry"/>
                </mxCell>
                <mxCell id="358" value="prefects++&lt;br&gt;house++" style="html=1;dashed=0;rounded=1;absoluteArcSize=1;arcSize=20;verticalAlign=middle;align=left;labelBackgroundColor=none;pointerEvents=0;strokeColor=default;fillColor=none;" vertex="1" parent="1">
                    <mxGeometry x="-397.5" y="4030" width="105" height="60" as="geometry"/>
                </mxCell>
                <mxCell id="359" value="*" style="text;resizeWidth=0;resizeHeight=0;points=[];part=1;verticalAlign=middle;align=center;rounded=0;labelBackgroundColor=none;pointerEvents=0;strokeColor=default;fillColor=none;" vertex="1" parent="358">
                    <mxGeometry x="1" y="0.5" width="20" height="20" relative="1" as="geometry">
                        <mxPoint x="-20" y="-10" as="offset"/>
                    </mxGeometry>
                </mxCell>
                <mxCell id="360" style="edgeStyle=none;html=1;exitX=1;exitY=1;exitDx=0;exitDy=0;entryX=0.994;entryY=0.4;entryDx=0;entryDy=0;entryPerimeter=0;" edge="1" parent="1" source="361">
                    <mxGeometry relative="1" as="geometry">
                        <mxPoint x="310.02000000000044" y="4108.75" as="targetPoint"/>
                    </mxGeometry>
                </mxCell>
                <mxCell id="361" value="" style="whiteSpace=wrap;html=1;dashed=1;fillColor=none;pointerEvents=0;allowArrows=0;rounded=1;fontStyle=1" vertex="1" parent="1">
                    <mxGeometry x="-130" y="3798.75" width="440" height="310" as="geometry"/>
                </mxCell>
                <mxCell id="362" style="edgeStyle=none;html=1;entryX=1;entryY=0.5;entryDx=0;entryDy=0;" edge="1" parent="1" source="366">
                    <mxGeometry relative="1" as="geometry">
                        <mxPoint x="50" y="3853.75" as="targetPoint"/>
                    </mxGeometry>
                </mxCell>
                <mxCell id="363" value="false" style="edgeLabel;html=1;align=center;verticalAlign=middle;resizable=0;points=[];" vertex="1" connectable="0" parent="362">
                    <mxGeometry x="-0.1722" relative="1" as="geometry">
                        <mxPoint as="offset"/>
                    </mxGeometry>
                </mxCell>
                <mxCell id="364" style="edgeStyle=none;html=1;entryX=0.5;entryY=0;entryDx=0;entryDy=0;" edge="1" parent="1" source="366" target="369">
                    <mxGeometry relative="1" as="geometry"/>
                </mxCell>
                <mxCell id="365" value="true" style="edgeLabel;html=1;align=center;verticalAlign=middle;resizable=0;points=[];" vertex="1" connectable="0" parent="364">
                    <mxGeometry x="-0.3713" y="-1" relative="1" as="geometry">
                        <mxPoint as="offset"/>
                    </mxGeometry>
                </mxCell>
                <mxCell id="366" value="" style="rhombus;rounded=0;pointerEvents=0;fillColor=none;strokeColor=default;labelBackgroundColor=none;" vertex="1" parent="1">
                    <mxGeometry x="90" y="3838.75" width="30" height="30" as="geometry"/>
                </mxCell>
                <mxCell id="367" value="false" style="edgeStyle=none;html=1;entryX=1;entryY=0.5;entryDx=0;entryDy=0;" edge="1" parent="1" source="369">
                    <mxGeometry relative="1" as="geometry">
                        <mxPoint x="50" y="3923.75" as="targetPoint"/>
                        <mxPoint as="offset"/>
                    </mxGeometry>
                </mxCell>
                <mxCell id="368" value="true" style="edgeStyle=none;html=1;entryX=0.5;entryY=0;entryDx=0;entryDy=0;" edge="1" parent="1" source="369">
                    <mxGeometry relative="1" as="geometry">
                        <mxPoint x="105" y="3978.75" as="targetPoint"/>
                    </mxGeometry>
                </mxCell>
                <mxCell id="369" value="" style="rhombus;rounded=0;pointerEvents=0;strokeColor=default;fillColor=none;labelBackgroundColor=none;" vertex="1" parent="1">
                    <mxGeometry x="90" y="3908.75" width="30" height="30" as="geometry"/>
                </mxCell>
                <mxCell id="370" value="prefect counter is less than 2" style="text;html=1;align=left;verticalAlign=middle;resizable=0;points=[];autosize=1;strokeColor=none;fillColor=none;" vertex="1" parent="1">
                    <mxGeometry x="120" y="3913.75" width="170" height="20" as="geometry"/>
                </mxCell>
                <mxCell id="371" value="student is a prefect" style="text;html=1;align=left;verticalAlign=middle;resizable=0;points=[];autosize=1;strokeColor=none;fillColor=none;" vertex="1" parent="1">
                    <mxGeometry x="120" y="3843.75" width="120" height="20" as="geometry"/>
                </mxCell>
                <mxCell id="372" value="Counting prefects by gender" style="text;html=1;align=center;verticalAlign=middle;resizable=0;points=[];autosize=1;strokeColor=none;fillColor=none;" vertex="1" parent="1">
                    <mxGeometry x="-20" y="3808.75" width="170" height="20" as="geometry"/>
                </mxCell>
                <mxCell id="373" value="student.isPrefect = false" style="html=1;align=center;verticalAlign=top;rounded=1;absoluteArcSize=1;arcSize=10;dashed=0;labelBackgroundColor=none;pointerEvents=0;strokeColor=default;fillColor=none;" vertex="1" parent="1">
                    <mxGeometry x="-100" y="3838.75" width="150" height="40" as="geometry"/>
                </mxCell>
                <mxCell id="374" value="Alert(Max per house reached)" style="html=1;align=center;verticalAlign=top;rounded=1;absoluteArcSize=1;arcSize=10;dashed=0;labelBackgroundColor=none;pointerEvents=0;strokeColor=default;fillColor=none;" vertex="1" parent="1">
                    <mxGeometry x="-120" y="3903.75" width="170" height="40" as="geometry"/>
                </mxCell>
                <mxCell id="375" value="false" style="edgeStyle=none;html=1;entryX=1;entryY=0.5;entryDx=0;entryDy=0;" edge="1" parent="1" source="377" target="378">
                    <mxGeometry relative="1" as="geometry"/>
                </mxCell>
                <mxCell id="376" style="edgeStyle=none;html=1;entryX=0.5;entryY=0;entryDx=0;entryDy=0;" edge="1" parent="1" source="377" target="379">
                    <mxGeometry relative="1" as="geometry"/>
                </mxCell>
                <mxCell id="377" value="" style="rhombus;rounded=0;labelBackgroundColor=none;pointerEvents=0;strokeColor=default;fillColor=none;" vertex="1" parent="1">
                    <mxGeometry x="90" y="3978.75" width="30" height="30" as="geometry"/>
                </mxCell>
                <mxCell id="378" value="Alert(Max per gender reached)" style="html=1;align=center;verticalAlign=top;rounded=1;absoluteArcSize=1;arcSize=10;dashed=0;labelBackgroundColor=none;pointerEvents=0;strokeColor=default;fillColor=none;" vertex="1" parent="1">
                    <mxGeometry x="-120" y="3973.75" width="170" height="40" as="geometry"/>
                </mxCell>
                <mxCell id="379" value="student.isPrefect = true" style="html=1;align=center;verticalAlign=top;rounded=1;absoluteArcSize=1;arcSize=10;dashed=0;labelBackgroundColor=none;pointerEvents=0;strokeColor=default;fillColor=none;" vertex="1" parent="1">
                    <mxGeometry x="20" y="4048.75" width="170" height="40" as="geometry"/>
                </mxCell>
                <mxCell id="380" value="Model" style="text;align=center;fontSize=16;fontStyle=1;spacing=-1;" vertex="1" parent="1">
                    <mxGeometry x="-400" y="4360" width="60" height="20" as="geometry"/>
                </mxCell>
                <mxCell id="381" value="View" style="text;align=center;fontSize=16;fontStyle=1;spacing=-1;" vertex="1" parent="1">
                    <mxGeometry x="-130" y="4360" width="60" height="20" as="geometry"/>
                </mxCell>
                <mxCell id="382" value="Controller" style="text;align=center;fontSize=16;fontStyle=1;spacing=-1;" vertex="1" parent="1">
                    <mxGeometry x="160" y="4360" width="60" height="20" as="geometry"/>
                </mxCell>
                <mxCell id="383" value="Main" style="text;align=center;fontSize=16;fontStyle=1;spacing=-1;" vertex="1" parent="1">
                    <mxGeometry x="480" y="4360" width="60" height="20" as="geometry"/>
                </mxCell>
                <mxCell id="384" value="Info" style="text;align=center;fontSize=16;fontStyle=1;spacing=-1;" vertex="1" parent="1">
                    <mxGeometry x="-660" y="4360" width="60" height="20" as="geometry"/>
                </mxCell>
                <mxCell id="385" value="Hacker" style="text;align=center;fontSize=16;fontStyle=1;spacing=-1;" vertex="1" parent="1">
                    <mxGeometry x="-990" y="4360" width="60" height="20" as="geometry"/>
                </mxCell>
                <mxCell id="386" style="edgeStyle=none;html=1;entryX=0.5;entryY=0;entryDx=0;entryDy=0;exitX=0;exitY=0.5;exitDx=0;exitDy=0;" edge="1" parent="1" source="398" target="392">
                    <mxGeometry relative="1" as="geometry">
                        <mxPoint x="100" y="5230" as="sourcePoint"/>
                        <Array as="points">
                            <mxPoint x="-340" y="5225"/>
                        </Array>
                    </mxGeometry>
                </mxCell>
                <mxCell id="387" value="student" style="edgeLabel;html=1;align=center;verticalAlign=middle;resizable=0;points=[];" vertex="1" connectable="0" parent="386">
                    <mxGeometry x="0.3921" relative="1" as="geometry">
                        <mxPoint as="offset"/>
                    </mxGeometry>
                </mxCell>
                <mxCell id="388" style="edgeStyle=none;html=1;entryX=1;entryY=0.5;entryDx=0;entryDy=0;exitX=0;exitY=0;exitDx=160;exitDy=40;exitPerimeter=0;" edge="1" parent="1" source="390" target="395">
                    <mxGeometry relative="1" as="geometry">
                        <Array as="points">
                            <mxPoint x="140" y="5510"/>
                        </Array>
                    </mxGeometry>
                </mxCell>
                <mxCell id="389" style="edgeStyle=none;html=1;entryX=0.5;entryY=0;entryDx=0;entryDy=0;" edge="1" parent="1" source="390" target="396">
                    <mxGeometry relative="1" as="geometry"/>
                </mxCell>
                <mxCell id="390" value="Squad btn clicked" style="html=1;shape=mxgraph.infographic.ribbonSimple;notch1=20;notch2=0;align=center;verticalAlign=middle;fontSize=14;fontStyle=0;flipH=1;" vertex="1" parent="1">
                    <mxGeometry x="140" y="5220" width="160" height="40" as="geometry"/>
                </mxCell>
                <mxCell id="391" style="edgeStyle=none;html=1;entryX=0.5;entryY=0;entryDx=0;entryDy=0;exitX=0;exitY=0.5;exitDx=0;exitDy=0;" edge="1" parent="1" source="392" target="402">
                    <mxGeometry relative="1" as="geometry">
                        <Array as="points">
                            <mxPoint x="-455" y="5310"/>
                            <mxPoint x="-455" y="5450"/>
                            <mxPoint x="-345" y="5450"/>
                        </Array>
                    </mxGeometry>
                </mxCell>
                <mxCell id="392" value="_RecruitToSquad" style="html=1;align=center;verticalAlign=top;rounded=1;absoluteArcSize=1;arcSize=10;dashed=0;" vertex="1" parent="1">
                    <mxGeometry x="-410" y="5290" width="140" height="40" as="geometry"/>
                </mxCell>
                <mxCell id="393" value="_FilterStudents" style="html=1;align=center;verticalAlign=top;rounded=1;absoluteArcSize=1;arcSize=10;dashed=0;" vertex="1" parent="1">
                    <mxGeometry x="-410" y="5370" width="140" height="40" as="geometry"/>
                </mxCell>
                <mxCell id="394" value="ShowStudents" style="html=1;align=center;verticalAlign=top;rounded=1;absoluteArcSize=1;arcSize=10;dashed=0;" vertex="1" parent="1">
                    <mxGeometry x="-150" y="5420" width="140" height="40" as="geometry"/>
                </mxCell>
                <mxCell id="395" value="ShowInfo" style="html=1;align=center;verticalAlign=top;rounded=1;absoluteArcSize=1;arcSize=10;dashed=0;" vertex="1" parent="1">
                    <mxGeometry x="-150" y="5490" width="140" height="40" as="geometry"/>
                </mxCell>
                <mxCell id="396" value="PopupEvent" style="html=1;align=center;verticalAlign=top;rounded=1;absoluteArcSize=1;arcSize=10;dashed=0;" vertex="1" parent="1">
                    <mxGeometry x="150" y="5550" width="140" height="40" as="geometry"/>
                </mxCell>
                <mxCell id="397" style="edgeStyle=none;html=1;entryX=0.5;entryY=0;entryDx=0;entryDy=0;exitX=1;exitY=0.5;exitDx=0;exitDy=0;exitPerimeter=0;startArrow=none;" edge="1" parent="1" source="390" target="393">
                    <mxGeometry relative="1" as="geometry">
                        <mxPoint x="150" y="5250" as="sourcePoint"/>
                        <mxPoint x="-330" y="5300" as="targetPoint"/>
                        <Array as="points">
                            <mxPoint x="-170" y="5240"/>
                            <mxPoint x="-170" y="5350"/>
                            <mxPoint x="-340" y="5350"/>
                        </Array>
                    </mxGeometry>
                </mxCell>
                <mxCell id="398" value="" style="fillColor=#ffffff;strokeColor=#000000;" vertex="1" parent="1">
                    <mxGeometry x="130" y="5220" width="10" height="10" as="geometry"/>
                </mxCell>
                <mxCell id="399" style="edgeStyle=none;html=1;entryX=0.5;entryY=0;entryDx=0;entryDy=0;" edge="1" parent="1" source="401" target="394">
                    <mxGeometry relative="1" as="geometry">
                        <Array as="points">
                            <mxPoint x="-80" y="5255"/>
                        </Array>
                    </mxGeometry>
                </mxCell>
                <mxCell id="400" value="studentsInDisplay" style="edgeLabel;html=1;align=center;verticalAlign=middle;resizable=0;points=[];" vertex="1" connectable="0" parent="399">
                    <mxGeometry x="0.6467" y="-1" relative="1" as="geometry">
                        <mxPoint as="offset"/>
                    </mxGeometry>
                </mxCell>
                <mxCell id="401" value="" style="fillColor=#ffffff;strokeColor=#000000;" vertex="1" parent="1">
                    <mxGeometry x="130" y="5250" width="10" height="10" as="geometry"/>
                </mxCell>
                <mxCell id="402" value="" style="whiteSpace=wrap;html=1;dashed=1;fillColor=default;pointerEvents=0;allowArrows=0;rounded=1;fontStyle=1" vertex="1" parent="1">
                    <mxGeometry x="-470" y="5620" width="610" height="530" as="geometry"/>
                </mxCell>
                <mxCell id="403" value="Recruit to Squad" style="text;html=1;align=center;verticalAlign=middle;resizable=0;points=[];autosize=1;strokeColor=none;fillColor=none;" vertex="1" parent="1">
                    <mxGeometry x="-385" y="5630" width="100" height="20" as="geometry"/>
                </mxCell>
                <mxCell id="404" value="Define a House that can always be accepted" style="shape=note2;boundedLbl=1;whiteSpace=wrap;html=1;size=25;verticalAlign=top;align=left;rounded=1;pointerEvents=0;fillColor=none;perimeterSpacing=0;labelBackgroundColor=none;" vertex="1" parent="1">
                    <mxGeometry x="-440" y="5660" width="210" height="60" as="geometry"/>
                </mxCell>
                <mxCell id="405" value="Define the blood type that can be accepted" style="shape=note2;boundedLbl=1;whiteSpace=wrap;html=1;size=25;verticalAlign=top;align=left;rounded=1;pointerEvents=0;fillColor=none;perimeterSpacing=0;labelBackgroundColor=none;" vertex="1" parent="1">
                    <mxGeometry x="-440" y="5740" width="210" height="60" as="geometry"/>
                </mxCell>
                <mxCell id="406" value="" style="whiteSpace=wrap;html=1;dashed=1;fillColor=none;pointerEvents=0;allowArrows=0;rounded=1;fontStyle=1" vertex="1" parent="1">
                    <mxGeometry x="-440" y="5840" width="540" height="270" as="geometry"/>
                </mxCell>
                <mxCell id="407" style="edgeStyle=none;html=1;entryX=1;entryY=0.5;entryDx=0;entryDy=0;" edge="1" parent="1" source="411">
                    <mxGeometry relative="1" as="geometry">
                        <mxPoint x="-260" y="5895" as="targetPoint"/>
                    </mxGeometry>
                </mxCell>
                <mxCell id="408" value="false" style="edgeLabel;html=1;align=center;verticalAlign=middle;resizable=0;points=[];" vertex="1" connectable="0" parent="407">
                    <mxGeometry x="-0.1722" relative="1" as="geometry">
                        <mxPoint as="offset"/>
                    </mxGeometry>
                </mxCell>
                <mxCell id="409" style="edgeStyle=none;html=1;entryX=0.5;entryY=0;entryDx=0;entryDy=0;" edge="1" parent="1" source="411" target="414">
                    <mxGeometry relative="1" as="geometry"/>
                </mxCell>
                <mxCell id="410" value="true" style="edgeLabel;html=1;align=center;verticalAlign=middle;resizable=0;points=[];" vertex="1" connectable="0" parent="409">
                    <mxGeometry x="-0.3713" y="-1" relative="1" as="geometry">
                        <mxPoint as="offset"/>
                    </mxGeometry>
                </mxCell>
                <mxCell id="411" value="" style="rhombus;rounded=0;pointerEvents=0;fillColor=none;strokeColor=default;labelBackgroundColor=none;" vertex="1" parent="1">
                    <mxGeometry x="-220" y="5880" width="30" height="30" as="geometry"/>
                </mxCell>
                <mxCell id="412" value="false" style="edgeStyle=none;html=1;entryX=1;entryY=0.5;entryDx=0;entryDy=0;" edge="1" parent="1" source="414">
                    <mxGeometry relative="1" as="geometry">
                        <mxPoint x="-260" y="5965" as="targetPoint"/>
                        <mxPoint as="offset"/>
                    </mxGeometry>
                </mxCell>
                <mxCell id="413" value="true" style="edgeStyle=none;html=1;entryX=0.5;entryY=0;entryDx=0;entryDy=0;" edge="1" parent="1" source="414" target="420">
                    <mxGeometry relative="1" as="geometry">
                        <mxPoint x="-205" y="6020" as="targetPoint"/>
                    </mxGeometry>
                </mxCell>
                <mxCell id="414" value="" style="rhombus;rounded=0;pointerEvents=0;strokeColor=default;fillColor=none;labelBackgroundColor=none;" vertex="1" parent="1">
                    <mxGeometry x="-220" y="5950" width="30" height="30" as="geometry"/>
                </mxCell>
                <mxCell id="415" value="student.house === accepted house&lt;br&gt;or student.bloodStatus === accepted blood status" style="text;html=1;align=left;verticalAlign=middle;resizable=0;points=[];autosize=1;strokeColor=none;fillColor=none;" vertex="1" parent="1">
                    <mxGeometry x="-190" y="5950" width="280" height="30" as="geometry"/>
                </mxCell>
                <mxCell id="416" value="student is already from squad" style="text;html=1;align=left;verticalAlign=middle;resizable=0;points=[];autosize=1;strokeColor=none;fillColor=none;" vertex="1" parent="1">
                    <mxGeometry x="-190" y="5885" width="170" height="20" as="geometry"/>
                </mxCell>
                <mxCell id="417" value="checking if student is allowed to be part of the squad" style="text;html=1;align=center;verticalAlign=middle;resizable=0;points=[];autosize=1;strokeColor=none;fillColor=none;" vertex="1" parent="1">
                    <mxGeometry x="-390" y="5850" width="290" height="20" as="geometry"/>
                </mxCell>
                <mxCell id="418" value="student.isSquad = false" style="html=1;align=center;verticalAlign=top;rounded=1;absoluteArcSize=1;arcSize=10;dashed=0;labelBackgroundColor=none;pointerEvents=0;strokeColor=default;fillColor=none;" vertex="1" parent="1">
                    <mxGeometry x="-410" y="5880" width="150" height="40" as="geometry"/>
                </mxCell>
                <mxCell id="419" value="Alert(not accepted because...)" style="html=1;align=center;verticalAlign=top;rounded=1;absoluteArcSize=1;arcSize=10;dashed=0;labelBackgroundColor=none;pointerEvents=0;strokeColor=default;fillColor=none;" vertex="1" parent="1">
                    <mxGeometry x="-430" y="5945" width="170" height="40" as="geometry"/>
                </mxCell>
                <mxCell id="420" value="student.isSquad = true" style="html=1;align=center;verticalAlign=top;rounded=1;absoluteArcSize=1;arcSize=10;dashed=0;labelBackgroundColor=none;pointerEvents=0;strokeColor=default;fillColor=none;" vertex="1" parent="1">
                    <mxGeometry x="-290" y="6040" width="170" height="40" as="geometry"/>
                </mxCell>
                <mxCell id="421" style="edgeStyle=none;html=1;entryX=0.5;entryY=0;entryDx=0;entryDy=0;fontSize=16;startArrow=none;" edge="1" parent="1" source="431" target="423">
                    <mxGeometry relative="1" as="geometry"/>
                </mxCell>
                <mxCell id="422" value="" style="ellipse;fillColor=#000000;strokeColor=none;" vertex="1" parent="1">
                    <mxGeometry x="437.5" y="6190" width="30" height="30" as="geometry"/>
                </mxCell>
                <mxCell id="423" value="&lt;font style=&quot;font-size: 11px&quot;&gt;init&lt;/font&gt;" style="html=1;align=center;verticalAlign=top;rounded=1;absoluteArcSize=1;arcSize=10;dashed=0;fontSize=16;" vertex="1" parent="1">
                    <mxGeometry x="382.5" y="6300" width="140" height="40" as="geometry"/>
                </mxCell>
                <mxCell id="424" style="edgeStyle=none;html=1;entryX=0.5;entryY=0;entryDx=0;entryDy=0;startArrow=none;" edge="1" parent="1" source="434" target="430">
                    <mxGeometry relative="1" as="geometry"/>
                </mxCell>
                <mxCell id="425" value="data" style="edgeLabel;html=1;align=center;verticalAlign=middle;resizable=0;points=[];" vertex="1" connectable="0" parent="424">
                    <mxGeometry x="-0.1472" y="-1" relative="1" as="geometry">
                        <mxPoint as="offset"/>
                    </mxGeometry>
                </mxCell>
                <mxCell id="426" value="&lt;font style=&quot;font-size: 11px&quot;&gt;LoadBloodData&lt;/font&gt;" style="html=1;align=center;verticalAlign=top;rounded=1;absoluteArcSize=1;arcSize=10;dashed=0;fontSize=16;" vertex="1" parent="1">
                    <mxGeometry x="-440" y="6330" width="140" height="40" as="geometry"/>
                </mxCell>
                <mxCell id="427" style="edgeStyle=none;html=1;entryX=0.5;entryY=0;entryDx=0;entryDy=0;fontSize=16;" edge="1" parent="1" source="423" target="426">
                    <mxGeometry relative="1" as="geometry">
                        <mxPoint x="670" y="6300" as="sourcePoint"/>
                        <mxPoint x="-110" y="6370" as="targetPoint"/>
                        <Array as="points">
                            <mxPoint x="-370" y="6320"/>
                        </Array>
                    </mxGeometry>
                </mxCell>
                <mxCell id="428" style="edgeStyle=none;html=1;entryX=0.5;entryY=0;entryDx=0;entryDy=0;startArrow=none;" edge="1" parent="1" source="436" target="433">
                    <mxGeometry relative="1" as="geometry"/>
                </mxCell>
                <mxCell id="429" value="data" style="edgeLabel;html=1;align=center;verticalAlign=middle;resizable=0;points=[];" vertex="1" connectable="0" parent="428">
                    <mxGeometry x="0.1044" y="-2" relative="1" as="geometry">
                        <mxPoint x="2" y="-12" as="offset"/>
                    </mxGeometry>
                </mxCell>
                <mxCell id="430" value="&lt;font style=&quot;font-size: 11px&quot;&gt;populateStudents&lt;/font&gt;" style="html=1;align=center;verticalAlign=top;rounded=1;absoluteArcSize=1;arcSize=10;dashed=0;fontSize=16;" vertex="1" parent="1">
                    <mxGeometry x="-440" y="6420" width="140" height="40" as="geometry"/>
                </mxCell>
                <mxCell id="431" value="DOMContentLoaded" style="html=1;shape=mxgraph.infographic.ribbonSimple;notch1=20;notch2=0;align=center;verticalAlign=middle;fontSize=14;fontStyle=0;flipH=1;fillColor=#2A2A2A;fontColor=#FFFFFF;" vertex="1" parent="1">
                    <mxGeometry x="362.5" y="6240" width="180" height="40" as="geometry"/>
                </mxCell>
                <mxCell id="432" value="" style="edgeStyle=none;html=1;entryX=0;entryY=0;entryDx=90;entryDy=0;fontSize=16;endArrow=none;entryPerimeter=0;" edge="1" parent="1" source="422" target="431">
                    <mxGeometry relative="1" as="geometry">
                        <mxPoint x="417.5" y="6220" as="sourcePoint"/>
                        <mxPoint x="417.5" y="6350" as="targetPoint"/>
                    </mxGeometry>
                </mxCell>
                <mxCell id="433" value="&lt;font style=&quot;font-size: 11px&quot;&gt;findBloodStatus&lt;/font&gt;" style="html=1;align=center;verticalAlign=top;rounded=1;absoluteArcSize=1;arcSize=10;dashed=0;fontSize=16;" vertex="1" parent="1">
                    <mxGeometry x="-440" y="6510" width="140" height="40" as="geometry"/>
                </mxCell>
                <mxCell id="434" value="" style="fillColor=#ffffff;strokeColor=#000000;fontSize=11;" vertex="1" parent="1">
                    <mxGeometry x="-375" y="6370" width="10" height="10" as="geometry"/>
                </mxCell>
                <mxCell id="435" value="" style="edgeStyle=none;html=1;entryX=0.5;entryY=0;entryDx=0;entryDy=0;endArrow=none;" edge="1" parent="1" source="426" target="434">
                    <mxGeometry relative="1" as="geometry">
                        <mxPoint x="-370" y="6370" as="sourcePoint"/>
                        <mxPoint x="-370" y="6420" as="targetPoint"/>
                    </mxGeometry>
                </mxCell>
                <mxCell id="436" value="" style="fillColor=#ffffff;strokeColor=#000000;fontSize=11;" vertex="1" parent="1">
                    <mxGeometry x="-375" y="6460" width="10" height="10" as="geometry"/>
                </mxCell>
                <mxCell id="437" value="" style="edgeStyle=none;html=1;entryX=0.5;entryY=0;entryDx=0;entryDy=0;endArrow=none;" edge="1" parent="1" source="430" target="436">
                    <mxGeometry relative="1" as="geometry">
                        <mxPoint x="-370" y="6460" as="sourcePoint"/>
                        <mxPoint x="-370" y="6510" as="targetPoint"/>
                    </mxGeometry>
                </mxCell>
                <mxCell id="478" value="&lt;font style=&quot;font-size: 11px&quot;&gt;_InitiateEventListeners&lt;/font&gt;" style="html=1;align=center;verticalAlign=top;rounded=1;absoluteArcSize=1;arcSize=10;dashed=0;fontSize=16;" vertex="1" parent="1">
                    <mxGeometry x="177.5" y="410" width="140" height="40" as="geometry"/>
                </mxCell>
                <mxCell id="480" value="&lt;font style=&quot;font-size: 11px&quot;&gt;_LoadBloodData&lt;/font&gt;" style="html=1;align=center;verticalAlign=top;rounded=1;absoluteArcSize=1;arcSize=10;dashed=0;fontSize=16;" vertex="1" parent="1">
                    <mxGeometry x="-455" y="360" width="140" height="40" as="geometry"/>
                </mxCell>
                <mxCell id="484" value="" style="fillColor=#ffffff;strokeColor=#000000;fontSize=11;" vertex="1" parent="1">
                    <mxGeometry x="390" y="210" width="10" height="10" as="geometry"/>
                </mxCell>
                <mxCell id="485" value="" style="edgeStyle=none;html=1;entryX=1;entryY=0.5;entryDx=0;entryDy=0;fontSize=16;exitX=0;exitY=0.25;exitDx=0;exitDy=0;endArrow=none;" edge="1" parent="1" source="161" target="484">
                    <mxGeometry relative="1" as="geometry">
                        <mxPoint x="400" y="220" as="sourcePoint"/>
                        <mxPoint x="-310" y="450" as="targetPoint"/>
                        <Array as="points"/>
                    </mxGeometry>
                </mxCell>
                <mxCell id="488" value="Model" style="text;align=center;fontSize=16;fontStyle=1;spacing=-1;" vertex="1" parent="1">
                    <mxGeometry x="-397.5" y="6610" width="60" height="20" as="geometry"/>
                </mxCell>
                <mxCell id="489" value="View" style="text;align=center;fontSize=16;fontStyle=1;spacing=-1;" vertex="1" parent="1">
                    <mxGeometry x="-127.5" y="6610" width="60" height="20" as="geometry"/>
                </mxCell>
                <mxCell id="490" value="Controller" style="text;align=center;fontSize=16;fontStyle=1;spacing=-1;" vertex="1" parent="1">
                    <mxGeometry x="162.5" y="6610" width="60" height="20" as="geometry"/>
                </mxCell>
                <mxCell id="491" value="Main" style="text;align=center;fontSize=16;fontStyle=1;spacing=-1;" vertex="1" parent="1">
                    <mxGeometry x="482.5" y="6610" width="60" height="20" as="geometry"/>
                </mxCell>
                <mxCell id="492" value="Info" style="text;align=center;fontSize=16;fontStyle=1;spacing=-1;" vertex="1" parent="1">
                    <mxGeometry x="-657.5" y="6610" width="60" height="20" as="geometry"/>
                </mxCell>
                <mxCell id="493" value="Hacker" style="text;align=center;fontSize=16;fontStyle=1;spacing=-1;" vertex="1" parent="1">
                    <mxGeometry x="-987.5" y="6610" width="60" height="20" as="geometry"/>
                </mxCell>
                <mxCell id="502" style="edgeStyle=none;html=1;entryX=1.422;entryY=0.005;entryDx=0;entryDy=0;entryPerimeter=0;fontColor=default;" edge="1" parent="1" source="496" target="499">
                    <mxGeometry relative="1" as="geometry">
                        <Array as="points">
                            <mxPoint x="110" y="6680"/>
                            <mxPoint x="110" y="6880"/>
                        </Array>
                    </mxGeometry>
                </mxCell>
                <mxCell id="496" value="filter popup trigger clicked" style="html=1;shape=mxgraph.infographic.ribbonSimple;notch1=20;notch2=0;align=left;verticalAlign=middle;fontSize=14;fontStyle=0;flipH=1;fillColor=#2A2A2A;fontColor=#FFFFFF;" vertex="1" parent="1">
                    <mxGeometry x="130" y="6660" width="190" height="40" as="geometry"/>
                </mxCell>
                <mxCell id="501" style="edgeStyle=none;html=1;entryX=1.4;entryY=0.499;entryDx=0;entryDy=0;entryPerimeter=0;fontColor=default;" edge="1" parent="1" source="497" target="499">
                    <mxGeometry relative="1" as="geometry">
                        <Array as="points">
                            <mxPoint x="110" y="6750"/>
                            <mxPoint x="110" y="6920"/>
                        </Array>
                    </mxGeometry>
                </mxCell>
                <mxCell id="497" value="sort popup trigger clicked" style="html=1;shape=mxgraph.infographic.ribbonSimple;notch1=20;notch2=0;align=left;verticalAlign=middle;fontSize=14;fontStyle=0;flipH=1;fillColor=#2A2A2A;fontColor=#FFFFFF;" vertex="1" parent="1">
                    <mxGeometry x="130" y="6730" width="180" height="40" as="geometry"/>
                </mxCell>
                <mxCell id="500" style="edgeStyle=none;html=1;fontColor=default;" edge="1" parent="1" source="498" target="499">
                    <mxGeometry relative="1" as="geometry">
                        <Array as="points">
                            <mxPoint x="110" y="6820"/>
                            <mxPoint x="110" y="6960"/>
                        </Array>
                    </mxGeometry>
                </mxCell>
                <mxCell id="498" value="info popup trigger clicked" style="html=1;shape=mxgraph.infographic.ribbonSimple;notch1=20;notch2=0;align=left;verticalAlign=middle;fontSize=14;fontStyle=0;flipH=1;fillColor=#2A2A2A;fontColor=#FFFFFF;" vertex="1" parent="1">
                    <mxGeometry x="130" y="6800" width="180" height="40" as="geometry"/>
                </mxCell>
                <mxCell id="504" style="edgeStyle=none;html=1;entryX=1;entryY=0.5;entryDx=0;entryDy=0;fontColor=default;" edge="1" parent="1" source="499" target="503">
                    <mxGeometry relative="1" as="geometry"/>
                </mxCell>
                <mxCell id="499" value="" style="html=1;points=[];perimeter=orthogonalPerimeter;fillColor=#000000;strokeColor=none;fontColor=default;" vertex="1" parent="1">
                    <mxGeometry x="75" y="6880" width="5" height="80" as="geometry"/>
                </mxCell>
                <mxCell id="507" style="edgeStyle=none;html=1;entryX=0.5;entryY=0;entryDx=0;entryDy=0;fontColor=default;" edge="1" parent="1" source="503" target="505">
                    <mxGeometry relative="1" as="geometry"/>
                </mxCell>
                <mxCell id="503" value="_HandleOptionsPopup" style="html=1;align=center;verticalAlign=top;rounded=1;absoluteArcSize=1;arcSize=10;dashed=0;fontColor=default;fillColor=default;" vertex="1" parent="1">
                    <mxGeometry x="-190" y="6910" width="140" height="40" as="geometry"/>
                </mxCell>
                <mxCell id="505" value="" style="whiteSpace=wrap;html=1;dashed=1;fillColor=default;pointerEvents=0;allowArrows=0;rounded=1;fontStyle=1" vertex="1" parent="1">
                    <mxGeometry x="-350" y="6980" width="390" height="230" as="geometry"/>
                </mxCell>
                <mxCell id="510" style="edgeStyle=none;html=1;entryX=0.5;entryY=0;entryDx=0;entryDy=0;entryPerimeter=0;fontColor=default;" edge="1" parent="1" source="506" target="509">
                    <mxGeometry relative="1" as="geometry">
                        <Array as="points">
                            <mxPoint x="-140" y="7050"/>
                            <mxPoint x="-52" y="7050"/>
                        </Array>
                    </mxGeometry>
                </mxCell>
                <mxCell id="511" value="true" style="edgeLabel;html=1;align=center;verticalAlign=middle;resizable=0;points=[];fontColor=default;" vertex="1" connectable="0" parent="510">
                    <mxGeometry x="-0.298" y="-2" relative="1" as="geometry">
                        <mxPoint as="offset"/>
                    </mxGeometry>
                </mxCell>
                <mxCell id="513" style="edgeStyle=none;html=1;entryX=0;entryY=0;entryDx=65;entryDy=0;entryPerimeter=0;fontColor=default;" edge="1" parent="1" source="506" target="512">
                    <mxGeometry relative="1" as="geometry">
                        <Array as="points">
                            <mxPoint x="-272" y="7025"/>
                        </Array>
                    </mxGeometry>
                </mxCell>
                <mxCell id="514" value="false" style="edgeLabel;html=1;align=center;verticalAlign=middle;resizable=0;points=[];fontColor=default;" vertex="1" connectable="0" parent="513">
                    <mxGeometry x="-0.0506" y="-1" relative="1" as="geometry">
                        <mxPoint as="offset"/>
                    </mxGeometry>
                </mxCell>
                <mxCell id="506" value="" style="rhombus;fontColor=default;fillColor=default;" vertex="1" parent="1">
                    <mxGeometry x="-155" y="7010" width="30" height="30" as="geometry"/>
                </mxCell>
                <mxCell id="508" value="dataset.popup === closed" style="text;html=1;align=center;verticalAlign=middle;resizable=0;points=[];autosize=1;strokeColor=none;fillColor=none;fontColor=default;" vertex="1" parent="1">
                    <mxGeometry x="-125" y="7015" width="150" height="20" as="geometry"/>
                </mxCell>
                <mxCell id="509" value="set element dataset.popup to open&lt;br&gt;&lt;br&gt;Close other popups" style="shape=note2;boundedLbl=1;whiteSpace=wrap;html=1;size=25;verticalAlign=top;align=left;fontColor=default;fillColor=none;" vertex="1" parent="1">
                    <mxGeometry x="-130" y="7085" width="155" height="95" as="geometry"/>
                </mxCell>
                <mxCell id="512" value="Set dataset.popup to closed" style="shape=note2;boundedLbl=1;whiteSpace=wrap;html=1;size=25;verticalAlign=top;align=left;fontColor=default;fillColor=none;" vertex="1" parent="1">
                    <mxGeometry x="-337.5" y="7040" width="155" height="65" as="geometry"/>
                </mxCell>
                <mxCell id="515" value="Student" style="text;align=center;fontSize=16;fontStyle=1;spacing=-1;" vertex="1" parent="1">
                    <mxGeometry x="-1340" y="20" width="60" height="20" as="geometry"/>
                </mxCell>
                <mxCell id="519" value="_FindFirstName" style="html=1;align=center;verticalAlign=top;rounded=1;absoluteArcSize=1;arcSize=10;dashed=0;fontColor=default;fillColor=default;" vertex="1" parent="1">
                    <mxGeometry x="-1500" y="530" width="140" height="40" as="geometry"/>
                </mxCell>
                <mxCell id="520" value="_FindLastName" style="html=1;align=center;verticalAlign=top;rounded=1;absoluteArcSize=1;arcSize=10;dashed=0;fontColor=default;fillColor=default;" vertex="1" parent="1">
                    <mxGeometry x="-1500" y="595" width="140" height="40" as="geometry"/>
                </mxCell>
                <mxCell id="521" value="_FindMiddleName" style="html=1;align=center;verticalAlign=top;rounded=1;absoluteArcSize=1;arcSize=10;dashed=0;fontColor=default;fillColor=default;" vertex="1" parent="1">
                    <mxGeometry x="-1500" y="660" width="140" height="40" as="geometry"/>
                </mxCell>
                <mxCell id="522" value="_FindHouse" style="html=1;align=center;verticalAlign=top;rounded=1;absoluteArcSize=1;arcSize=10;dashed=0;fontColor=default;fillColor=default;" vertex="1" parent="1">
                    <mxGeometry x="-1500" y="720" width="140" height="40" as="geometry"/>
                </mxCell>
                <mxCell id="523" value="_FindGender" style="html=1;align=center;verticalAlign=top;rounded=1;absoluteArcSize=1;arcSize=10;dashed=0;fontColor=default;fillColor=default;" vertex="1" parent="1">
                    <mxGeometry x="-1500" y="790" width="140" height="40" as="geometry"/>
                </mxCell>
                <mxCell id="524" value="_FindBloodStatus" style="html=1;align=center;verticalAlign=top;rounded=1;absoluteArcSize=1;arcSize=10;dashed=0;fontColor=default;fillColor=default;" vertex="1" parent="1">
                    <mxGeometry x="-1500" y="850" width="140" height="40" as="geometry"/>
                </mxCell>
                <mxCell id="525" style="edgeStyle=none;html=1;fontColor=default;entryX=1;entryY=0.5;entryDx=0;entryDy=0;exitX=0;exitY=0.5;exitDx=0;exitDy=0;" edge="1" parent="1" source="170" target="520">
                    <mxGeometry relative="1" as="geometry">
                        <mxPoint x="-1350" y="560" as="targetPoint"/>
                        <mxPoint x="-440" y="560" as="sourcePoint"/>
                        <Array as="points">
                            <mxPoint x="-1200" y="550"/>
                            <mxPoint x="-1200" y="615"/>
                        </Array>
                    </mxGeometry>
                </mxCell>
                <mxCell id="531" value="entry.fullName" style="edgeLabel;html=1;align=center;verticalAlign=middle;resizable=0;points=[];fontColor=default;" vertex="1" connectable="0" parent="525">
                    <mxGeometry x="0.8902" relative="1" as="geometry">
                        <mxPoint as="offset"/>
                    </mxGeometry>
                </mxCell>
                <mxCell id="526" style="edgeStyle=none;html=1;fontColor=default;entryX=1;entryY=0.5;entryDx=0;entryDy=0;exitX=0;exitY=0.5;exitDx=0;exitDy=0;" edge="1" parent="1" source="170" target="521">
                    <mxGeometry relative="1" as="geometry">
                        <mxPoint x="-1350" y="625" as="targetPoint"/>
                        <mxPoint x="-430" y="570" as="sourcePoint"/>
                        <Array as="points">
                            <mxPoint x="-1200" y="550"/>
                            <mxPoint x="-1200" y="680"/>
                        </Array>
                    </mxGeometry>
                </mxCell>
                <mxCell id="532" value="entry.fullName" style="edgeLabel;html=1;align=center;verticalAlign=middle;resizable=0;points=[];fontColor=default;" vertex="1" connectable="0" parent="526">
                    <mxGeometry x="0.8687" y="3" relative="1" as="geometry">
                        <mxPoint as="offset"/>
                    </mxGeometry>
                </mxCell>
                <mxCell id="527" style="edgeStyle=none;html=1;fontColor=default;entryX=1;entryY=0.5;entryDx=0;entryDy=0;exitX=0;exitY=0.5;exitDx=0;exitDy=0;" edge="1" parent="1" source="170" target="522">
                    <mxGeometry relative="1" as="geometry">
                        <mxPoint x="-1350" y="690" as="targetPoint"/>
                        <mxPoint x="-420" y="580" as="sourcePoint"/>
                        <Array as="points">
                            <mxPoint x="-1200" y="550"/>
                            <mxPoint x="-1200" y="740"/>
                        </Array>
                    </mxGeometry>
                </mxCell>
                <mxCell id="533" value="entry.house" style="edgeLabel;html=1;align=center;verticalAlign=middle;resizable=0;points=[];fontColor=default;" vertex="1" connectable="0" parent="527">
                    <mxGeometry x="0.8682" y="-2" relative="1" as="geometry">
                        <mxPoint as="offset"/>
                    </mxGeometry>
                </mxCell>
                <mxCell id="528" style="edgeStyle=none;html=1;fontColor=default;entryX=1;entryY=0.5;entryDx=0;entryDy=0;exitX=0;exitY=0.5;exitDx=0;exitDy=0;" edge="1" parent="1" source="170" target="523">
                    <mxGeometry relative="1" as="geometry">
                        <mxPoint x="-1350" y="750" as="targetPoint"/>
                        <mxPoint x="-410" y="590" as="sourcePoint"/>
                        <Array as="points">
                            <mxPoint x="-1200" y="550"/>
                            <mxPoint x="-1200" y="810"/>
                        </Array>
                    </mxGeometry>
                </mxCell>
                <mxCell id="534" value="entry.gender" style="edgeLabel;html=1;align=center;verticalAlign=middle;resizable=0;points=[];fontColor=default;" vertex="1" connectable="0" parent="528">
                    <mxGeometry x="0.8617" y="-1" relative="1" as="geometry">
                        <mxPoint as="offset"/>
                    </mxGeometry>
                </mxCell>
                <mxCell id="529" style="edgeStyle=none;html=1;fontColor=default;entryX=1;entryY=0.5;entryDx=0;entryDy=0;exitX=0;exitY=0.5;exitDx=0;exitDy=0;startArrow=none;" edge="1" parent="1" source="536" target="524">
                    <mxGeometry relative="1" as="geometry">
                        <mxPoint x="-1350" y="820.0000000000002" as="targetPoint"/>
                        <mxPoint x="-400" y="600" as="sourcePoint"/>
                        <Array as="points">
                            <mxPoint x="-1200" y="550"/>
                            <mxPoint x="-1200" y="870"/>
                        </Array>
                    </mxGeometry>
                </mxCell>
                <mxCell id="535" value="bloodData" style="edgeLabel;html=1;align=center;verticalAlign=middle;resizable=0;points=[];fontColor=default;" vertex="1" connectable="0" parent="529">
                    <mxGeometry x="0.8565" y="2" relative="1" as="geometry">
                        <mxPoint as="offset"/>
                    </mxGeometry>
                </mxCell>
                <mxCell id="536" value="" style="fillColor=#ffffff;strokeColor=#000000;fontSize=11;" vertex="1" parent="1">
                    <mxGeometry x="-460" y="545" width="10" height="10" as="geometry"/>
                </mxCell>
                <mxCell id="537" value="" style="edgeStyle=none;html=1;fontColor=default;entryX=1;entryY=0.5;entryDx=0;entryDy=0;exitX=0;exitY=0.5;exitDx=0;exitDy=0;endArrow=none;" edge="1" parent="1" source="170" target="536">
                    <mxGeometry relative="1" as="geometry">
                        <mxPoint x="-1360" y="870" as="targetPoint"/>
                        <mxPoint x="-450" y="550" as="sourcePoint"/>
                        <Array as="points"/>
                    </mxGeometry>
                </mxCell>
            </root>
        </mxGraphModel>
    </diagram>
</mxfile>